<?xml version="1.0" encoding="UTF-8"?>
<svg version="1.1" xmlns="http://www.w3.org/2000/svg" width="512" height="512">
<path d="M0 0 C168.96 0 337.92 0 512 0 C512 168.96 512 337.92 512 512 C343.04 512 174.08 512 0 512 C0 343.04 0 174.08 0 0 Z " fill="#FEFEFE" transform="translate(0,0)"/>
<path d="M0 0 C0.86238281 0.29003906 1.72476563 0.58007812 2.61328125 0.87890625 C7.11486541 2.51149899 10.56258894 4.30332362 14.25 7.375 C16.11597021 8.94266292 16.11597021 8.94266292 18 10 C21.07416306 9.47562227 21.07416306 9.47562227 24 8 C31.04956121 7.47007854 37.31855995 9.01289628 44.125 10.75 C45.18332031 11.00265625 46.24164063 11.2553125 47.33203125 11.515625 C52.95320545 12.92620824 57.52812772 14.24362729 62 18 C63.375 20.75 63.375 20.75 64 23 C64.9075 22.835 65.815 22.67 66.75 22.5 C82.28671307 20.37425254 97.29080085 23.67992062 110 33 C110.969375 33.680625 111.93875 34.36125 112.9375 35.0625 C119.52855285 40.69958468 124.33174106 49.52564453 126 58 C126.19504161 63.99358826 125.83052895 69.97798871 125.44335938 75.95898438 C124.9980292 82.46938101 124.9980292 82.46938101 127.71533203 88.0769043 C129.80584401 89.67613868 129.80584401 89.67613868 132.0168457 90.83740234 C135.48069602 92.86803822 136.45785487 95.33740531 138 99 C138.32148802 104.13762593 137.57502653 108.69052335 136.25 113.625 C136.06808105 114.31650146 135.88616211 115.00800293 135.69873047 115.72045898 C135.32263766 117.13413311 134.94164197 118.54651231 134.55566406 119.95751953 C134.03768083 121.86149481 133.54516618 123.7723483 133.0546875 125.68359375 C130.95025942 133.33204034 128.59151891 139.06652959 121.75 143.4375 C117.51049909 144.30467064 113.31040019 144.15065476 109 144 C108.9175 145.27875 108.835 146.5575 108.75 147.875 C108.0780466 153.85633165 106.60459183 160.53022141 102.11328125 164.7890625 C100 166 100 166 96 166 C95.30106956 168.99541619 94.64124249 171.99206646 94 175 C93.64421875 176.54880859 93.64421875 176.54880859 93.28125 178.12890625 C93.0646875 179.17949219 92.848125 180.23007812 92.625 181.3125 C92.30402344 182.79169922 92.30402344 182.79169922 91.9765625 184.30078125 C91.69628424 187.15141561 91.69628424 187.15141561 93.96875 189.09765625 C94.6390625 189.72542969 95.309375 190.35320312 96 191 C96.2421875 193.0078125 96.2421875 193.0078125 95.875 195.125 C95.75769531 195.91003906 95.64039063 196.69507813 95.51953125 197.50390625 C95 200 95 200 94.26171875 202.52734375 C92.8007027 207.51282987 92.8007027 207.51282987 94.171875 212.33984375 C95.68947921 214.33802263 97.29377908 216.16322392 99 218 C102.60588095 225.21176189 99.83686296 237.44266102 99.42016602 245.48950195 C99.34814623 246.95978352 99.28538032 248.4305464 99.23168945 249.90161133 C98.64064731 265.90944642 98.64064731 265.90944642 93 272 C86.97203422 277.46722477 82.68206801 277.23994713 74.8125 277.3125 C73.26852539 277.35600586 73.26852539 277.35600586 71.69335938 277.40039062 C65.20290702 277.45444308 61.24091026 276.92546267 56 273 C54.2578125 271.18359375 54.2578125 271.18359375 53.125 269.4375 C52.73570312 268.85871094 52.34640625 268.27992188 51.9453125 267.68359375 C47.84484961 260.38070323 49.93806055 249.96454586 51 242 C49.865625 241.938125 48.73125 241.87625 47.5625 241.8125 C42.48400099 241.23874591 37.81793944 239.81110816 32.94775391 238.30126953 C24.53063785 235.7554737 15.9852551 233.73925692 7.4375 231.6875 C6.67751709 231.50492645 5.91753418 231.32235291 5.13452148 231.13424683 C0.75766881 230.08391795 -3.62057216 229.03954746 -8 228 C-1.12720221 240.37545582 5.79001639 252.71817021 12.9375 264.9375 C13.50114258 265.90856689 14.06478516 266.87963379 14.64550781 267.88012695 C17.42265824 272.65330535 20.23182535 277.39905974 23.14241028 282.09239197 C24.21081328 283.82160168 25.26657308 285.55790755 26.31860352 287.29711914 C27.64879662 289.49020849 29.00085571 291.67024674 30.37866211 293.83374023 C34.82687655 301.2454553 36.22759087 307.37089338 35 316 C31.00035147 324.61462761 22.18319283 328.80474638 14.23626709 333.24468994 C11.12028525 334.98617604 8.01600513 336.74833928 4.91015625 338.5078125 C4.26498047 338.8726474 3.61980469 339.2374823 2.95507812 339.6133728 C-4.2807044 343.71146463 -11.45532728 347.91264071 -18.625 352.125 C-19.22684113 352.47808228 -19.82868225 352.83116455 -20.44876099 353.19494629 C-27.03326687 357.05802499 -33.59743423 360.94396224 -40.08740234 364.96435547 C-42 366 -42 366 -44 366 C-43.67 366.99 -43.34 367.98 -43 369 C-42.09954338 379.65786358 -43.54971593 386.97164295 -50.25 395.3125 C-54.94606979 400.39316171 -61.06685699 403.64197658 -68.00390625 404.2734375 C-76.18879756 404.50703484 -82.19505357 403.74608248 -89 399 C-89.50144531 398.42894531 -90.00289062 397.85789062 -90.51953125 397.26953125 C-91.25236328 396.64111328 -91.25236328 396.64111328 -92 396 C-95.03869125 396.47401322 -97.4214293 397.64442118 -100.08203125 399.14453125 C-100.84966797 399.57443359 -101.61730469 400.00433594 -102.40820312 400.44726562 C-103.20162109 400.89779297 -103.99503906 401.34832031 -104.8125 401.8125 C-105.59431641 402.25142578 -106.37613281 402.69035156 -107.18164062 403.14257812 C-107.95314453 403.57634766 -108.72464844 404.01011719 -109.51953125 404.45703125 C-110.27886963 404.88395264 -111.03820801 405.31087402 -111.82055664 405.75073242 C-113.20679613 406.54533167 -114.58255415 407.35872571 -115.94311523 408.1965332 C-121.43973349 411.54904331 -125.71201968 412.01477492 -132 411 C-136.93104771 409.23770116 -139.98806654 406.35517116 -142.80078125 402 C-143.31568115 401.20408447 -143.83058105 400.40816895 -144.36108398 399.58813477 C-144.90192627 398.73405029 -145.44276855 397.87996582 -146 397 C-146.84123413 395.68116821 -146.84123413 395.68116821 -147.69946289 394.33569336 C-149.45302042 391.55281464 -151.1670939 388.74858979 -152.875 385.9375 C-153.76445312 384.52500977 -153.76445312 384.52500977 -154.671875 383.08398438 C-158.09670618 377.41407377 -159.91921684 373.65124379 -159 367 C-157.4375 364.4375 -157.4375 364.4375 -155 363 C-151.5 362.9375 -151.5 362.9375 -148 364 C-144.88436003 367.41504426 -142.61533713 371.17316002 -140.328125 375.17578125 C-140.00084412 375.74580368 -139.67356323 376.31582611 -139.33636475 376.90312195 C-138.3035849 378.70399743 -137.27671153 380.50815937 -136.25 382.3125 C-135.54596245 383.54254075 -134.84153899 384.7723607 -134.13671875 386.00195312 C-132.42001227 388.99876363 -130.70858211 391.99854842 -129 395 C-124.68628324 394.46923212 -121.61864967 393.49683395 -117.890625 391.27734375 C-116.97152344 390.73916016 -116.05242187 390.20097656 -115.10546875 389.64648438 C-114.16316406 389.08251953 -113.22085938 388.51855469 -112.25 387.9375 C-110.3615662 386.81791038 -108.4710439 385.70183349 -106.578125 384.58984375 C-105.74700195 384.09347412 -104.91587891 383.59710449 -104.05957031 383.08569336 C-102 382 -102 382 -100 382 C-100.03480469 381.14277344 -100.06960938 380.28554688 -100.10546875 379.40234375 C-100.26399088 372.70667073 -100.19867421 367.90524469 -97 362 C-95.64298665 359.66760842 -95.64298665 359.66760842 -95 357 C-95.85772759 354.34444467 -95.85772759 354.34444467 -97.55859375 351.73828125 C-98.16485596 350.71468506 -98.77111816 349.69108887 -99.39575195 348.63647461 C-100.06952881 347.53956299 -100.74330566 346.44265137 -101.4375 345.3125 C-102.12845943 344.15812543 -102.8174772 343.00258666 -103.50463867 341.84594727 C-104.93870793 339.43540049 -106.38109499 337.03012768 -107.82910156 334.62792969 C-111.24224866 328.94720888 -114.51780701 323.18748728 -117.8125 317.4375 C-123.48487324 307.59126939 -129.21184481 297.77857748 -135 288 C-139.35437265 289.3163535 -143.06419385 291.01432311 -146.9921875 293.30078125 C-148.66861328 294.27241211 -148.66861328 294.27241211 -150.37890625 295.26367188 C-151.54427847 295.94660155 -152.70964301 296.62954434 -153.875 297.3125 C-155.03227594 297.98419995 -156.18982606 298.65542774 -157.34765625 299.32617188 C-162.18042543 302.13740872 -166.98677517 304.96509168 -171.6953125 307.98046875 C-175 310 -175 310 -177 310 C-175.79695601 312.46104939 -174.58857517 314.91914379 -173.375 317.375 C-173.01543213 318.10581787 -172.65586426 318.83663574 -172.28540039 319.58959961 C-170.21200214 323.75063838 -167.99916236 327.67480066 -165.4375 331.5625 C-163.41965557 334.83736228 -163.0032954 335.9307965 -162.8125 339.9375 C-164 343 -164 343 -166.1875 345 C-169.71065374 346.25267688 -171.46081576 346.20482868 -175 345 C-179.04409235 340.66147695 -181.81288162 335.427403 -184.75 330.3125 C-185.50990234 329.0121582 -185.50990234 329.0121582 -186.28515625 327.68554688 C-186.76339844 326.85732422 -187.24164063 326.02910156 -187.734375 325.17578125 C-188.16975586 324.42208252 -188.60513672 323.66838379 -189.05371094 322.8918457 C-190 321 -190 321 -190 319 C-190.99 319.33 -191.98 319.66 -193 320 C-198.88458989 321.62211029 -203.70741134 322.05507278 -209.125 319.0625 C-213.72229291 315.83993157 -216.19657212 311.78114304 -219 307 C-219.76487695 305.75134602 -220.53196794 304.50404667 -221.30078125 303.2578125 C-222.11832093 301.92256831 -222.93472507 300.58662821 -223.75 299.25 C-224.13921631 298.6120752 -224.52843262 297.97415039 -224.92944336 297.31689453 C-229.30610086 290.01704674 -231.00188879 284.51605476 -230 276 C-228.38296347 271.45729428 -225.41042178 268.31728001 -222 265 C-222.63228516 263.37191406 -222.63228516 263.37191406 -223.27734375 261.7109375 C-223.83102409 260.26573796 -224.38439305 258.82041909 -224.9375 257.375 C-225.21529297 256.66214844 -225.49308594 255.94929688 -225.77929688 255.21484375 C-230.05554715 243.98324665 -231.39591978 229.73525997 -226.875 218.375 C-224.45677705 213.4502482 -221.61093399 209.12293209 -218 205 C-217.52304688 204.41863281 -217.04609375 203.83726562 -216.5546875 203.23828125 C-209.23926453 195.05897667 -196.31647158 187.50438403 -185.23046875 186.83203125 C-182.81008607 186.8151055 -180.41608342 186.86381158 -178 187 C-177.938125 186.13375 -177.87625 185.2675 -177.8125 184.375 C-176.25982652 177.92543323 -172.06328885 174.85129761 -166.71875 171.3515625 C-164.6533114 170.09698023 -162.58011622 168.85509342 -160.5 167.625 C-159.48679687 166.98433594 -158.47359375 166.34367188 -157.4296875 165.68359375 C-150.5826291 161.61869452 -145.72503624 160.35341336 -137.7644043 161.15771484 C-134.88274618 161.2756923 -134.88274618 161.2756923 -132.8840332 159.16577148 C-131.78217809 157.6472758 -130.73065497 156.09158019 -129.71875 154.51171875 C-123.21595376 145.00876878 -110.7980447 139.09333906 -100 136 C-97.4453125 135.8046875 -97.4453125 135.8046875 -95.125 135.875 C-94.34382812 135.89304688 -93.56265625 135.91109375 -92.7578125 135.9296875 C-92.17773438 135.95289063 -91.59765625 135.97609375 -91 136 C-90.87044922 135.10474609 -90.87044922 135.10474609 -90.73828125 134.19140625 C-89.65014241 127.47289765 -87.93418984 121.08114702 -85.96923828 114.58056641 C-83.80823534 107.42993065 -81.88339725 100.22845762 -80 93 C-80.74765625 92.74992187 -81.4953125 92.49984375 -82.265625 92.2421875 C-85.23266298 90.89430453 -86.65082562 89.58642128 -88.75 87.125 C-89.34296875 86.44695312 -89.9359375 85.76890625 -90.546875 85.0703125 C-93.54847272 80.79384263 -93.4118479 76.09111701 -93 71 C-92.41090481 67.94131472 -91.57602917 64.9838286 -90.6875 62 C-90.47416016 61.24460937 -90.26082031 60.48921875 -90.04101562 59.7109375 C-85.91259642 45.36622121 -85.91259642 45.36622121 -81.4375 40.5625 C-80.83808594 39.90378906 -80.23867188 39.24507812 -79.62109375 38.56640625 C-76.51660282 35.56664514 -74.0668444 35.89290591 -69.875 35.9375 C-68.77929688 35.94652344 -67.68359375 35.95554688 -66.5546875 35.96484375 C-65.29011719 35.98224609 -65.29011719 35.98224609 -64 36 C-63.82984375 34.93652344 -63.82984375 34.93652344 -63.65625 33.8515625 C-60.72924671 21.13303632 -51.44704091 9.37226844 -40.578125 2.4375 C-27.6796628 -4.75436983 -13.80525675 -4.98701523 0 0 Z " fill="#030202" transform="translate(374,85)"/>
<path d="M0 0 C10.07069383 7.52809292 18.61298429 17.26924952 21 30 C21 31.32 21 32.64 21 34 C21.825 34.020625 22.65 34.04125 23.5 34.0625 C34.26861156 36.94694952 40.41263221 49.11305946 46 58 C47.15574224 60.31148448 47.09794394 61.8077263 47.1875 64.375 C47.59286821 68.38749782 47.59286821 68.38749782 50.625 71.1875 C51.73875 71.785625 52.8525 72.38375 54 73 C63.40157276 79.69082181 70.7502308 90.60397286 73 102 C74.30072863 117.35286247 69.34774468 128.2562061 60 140 C57.33984375 142.87890625 57.33984375 142.87890625 55 145 C54.34 145 53.68 145 53 145 C53.32226562 145.55042969 53.64453125 146.10085937 53.9765625 146.66796875 C55.16277636 149.37090643 55.33334333 151.36737346 55.375 154.3125 C55.40335938 155.21613281 55.43171875 156.11976563 55.4609375 157.05078125 C54.50554542 163.16367123 51.36373162 167.18686082 46.5324707 170.86743164 C45.71202271 171.45899048 45.71202271 171.45899048 44.875 172.0625 C44.30676514 172.48587646 43.73853027 172.90925293 43.15307617 173.34545898 C27.27321349 185.00344474 27.27321349 185.00344474 18 184 C14.75 182.625 14.75 182.625 12 181 C10.67051448 180.3256926 9.33787589 179.65750311 8 179 C7.22398437 179.60585937 6.44796875 180.21171875 5.6484375 180.8359375 C-1.78505413 186.61236296 -9.35040441 192.1578441 -17.03125 197.59912109 C-20.76388912 200.2551086 -24.47485148 202.9411763 -28.1875 205.625 C-28.95006104 206.17607422 -29.71262207 206.72714844 -30.49829102 207.29492188 C-36.34030093 211.5188234 -42.17477377 215.75297383 -48 220 C-47.13375 220.99 -46.2675 221.98 -45.375 223 C-44.83359375 223.64324219 -44.2921875 224.28648437 -43.734375 224.94921875 C-42.60359668 226.28628771 -41.44805391 227.60291408 -40.265625 228.89453125 C-36.42158529 233.38839672 -35.20875866 236.67296926 -35.609375 242.609375 C-36.65291966 248.99586832 -39.30544179 252.73221981 -44 257 C-45.16876984 258.20629914 -46.33532304 259.41474873 -47.5 260.625 C-51.80111521 264.85243444 -54.69392691 267.14192786 -60.875 267.375 C-71.37350111 266.94143358 -76.13556049 261.44296602 -83 254 C-84.76518785 252.04398103 -86.50163838 250.07138981 -88.2109375 248.06640625 C-90.31437344 245.63689181 -92.50402066 243.29523095 -94.6875 240.9375 C-100.39236264 234.56204873 -104.39422769 228.89377661 -104 220 C-102.39630107 214.6543369 -99.99460379 211.78975231 -96 208 C-95.29439506 206.68685725 -94.61944073 205.35591866 -94 204 C-99.52756376 196.1926346 -105.12641527 188.44279912 -110.8125 180.75 C-117.06590327 172.28766625 -123.24384352 163.77352658 -129.39111328 155.23388672 C-132.09012136 151.48640205 -134.79544751 147.74348405 -137.5 144 C-138.57552664 142.51042086 -139.65104746 141.02083752 -140.7265625 139.53125 C-142.96935715 136.42563429 -145.21445361 133.32169799 -147.4609375 130.21875 C-168.0845691 101.72303434 -168.0845691 101.72303434 -167 93 C-163.11216571 80.85051783 -146.10292535 72.73528357 -136 66 C-133.27874275 65.52816911 -130.7248456 65.55246819 -128 66 C-125.9375 67.5625 -125.9375 67.5625 -125 70 C-125 74.07472222 -125.33071782 76.22735377 -128.0234375 79.3359375 C-131.68926969 82.61690541 -135.58072753 85.39584776 -139.625 88.1875 C-140.388125 88.72052734 -141.15125 89.25355469 -141.9375 89.80273438 C-144.94063909 91.89702874 -147.95353742 93.96902495 -151 96 C-150.38048162 99.40184106 -149.11548687 101.51268418 -147.05078125 104.265625 C-146.44943359 105.07386719 -145.84808594 105.88210937 -145.22851562 106.71484375 C-144.59623047 107.55144531 -143.96394531 108.38804687 -143.3125 109.25 C-142.69955078 110.07113281 -142.08660156 110.89226562 -141.45507812 111.73828125 C-139.05694392 114.94766127 -136.65512071 118.15263691 -134.20458984 121.32226562 C-133.65625488 122.03576172 -133.10791992 122.74925781 -132.54296875 123.484375 C-131.80663208 124.43135254 -131.80663208 124.43135254 -131.05541992 125.39746094 C-130 127 -130 127 -130 129 C-116.03472204 119.05366859 -102.11112636 109.05166134 -88.3125 98.875 C-87.5272998 98.29637207 -86.74209961 97.71774414 -85.93310547 97.12158203 C-82.12749411 94.3150723 -78.32815064 91.50065718 -74.5390625 88.671875 C-73.84514404 88.15641113 -73.15122559 87.64094727 -72.4362793 87.10986328 C-71.13533793 86.14341337 -69.83716524 85.17322161 -68.54223633 84.19873047 C-64.22559151 81 -64.22559151 81 -62 81 C-69.545344 70.24162993 -77.18713968 59.56581701 -85 49 C-88.71135101 51.06529402 -92.1829441 53.01110101 -95.4375 55.75 C-99.39563388 58.63595314 -102.18630247 58.72205463 -107 58 C-109.67104908 55.82977263 -109.94360208 54.50895686 -110.3203125 51.109375 C-109.91563633 47.18105508 -108.88983272 46.33263591 -105.875 43.875 C-105.05902344 43.20210937 -104.24304688 42.52921875 -103.40234375 41.8359375 C-100.66717532 39.74564618 -97.93131885 37.80388852 -95 36 C-95.15984375 35.45214844 -95.3196875 34.90429688 -95.484375 34.33984375 C-96.6370054 29.10934669 -96.838137 23.30487676 -95 18.25 C-87.93896196 10.3063322 -75.13015682 -1.41556092 -64.1875 -2.3125 C-59.29954959 -2.19416973 -55.17794347 -0.50425757 -51.15625 2.2734375 C-48.89171854 3.29141482 -48.89171854 3.29141482 -46.265625 1.953125 C-45.27046875 1.39109375 -44.2753125 0.8290625 -43.25 0.25 C-30.21735682 -7.05100953 -12.91170527 -8.15849509 0 0 Z " fill="#020203" transform="translate(167,42)"/>
<path d="M0 0 C1.49536133 2.11938477 1.49536133 2.11938477 3.08203125 4.94140625 C3.67725586 5.98804443 4.27248047 7.03468262 4.88574219 8.11303711 C5.52157227 9.25135986 6.15740234 10.38968262 6.8125 11.5625 C7.48106376 12.74350507 8.15067418 13.92391819 8.82128906 15.10375977 C9.8563036 16.92523547 10.89052587 18.74712109 11.9213562 20.57096863 C15.30657351 26.56033296 18.77401313 32.50042711 22.25 38.4375 C22.81887939 39.41702637 23.38775879 40.39655273 23.97387695 41.40576172 C26.73093504 46.15083509 29.52014293 50.86942279 32.390625 55.546875 C32.91624023 56.41642822 33.44185547 57.28598145 33.98339844 58.18188477 C34.96650248 59.80609545 35.9637684 61.42185105 36.97753906 63.02709961 C40.15052772 68.31363146 40.15052772 68.31363146 39.37890625 71.83203125 C38.92386719 72.54746094 38.46882813 73.26289063 38 74 C35.46576689 78.86572757 35.00169617 81.7466133 35.17578125 87.2578125 C34.88619776 91.46811491 34.64627621 93.34111517 31.65991211 96.38574219 C28.44305133 98.47522134 25.20094131 100.20123601 21.75 101.875 C20.60402344 102.49246094 19.45804687 103.10992187 18.27734375 103.74609375 C10.07322346 108.01529255 10.07322346 108.01529255 6.32714844 107.96191406 C3.1549616 106.650708 2.44569629 105.12534557 0.84375 102.1171875 C0.29589844 101.11429687 -0.25195312 100.11140625 -0.81640625 99.078125 C-1.37199219 98.02109375 -1.92757812 96.9640625 -2.5 95.875 C-7.63387326 86.0389481 -7.63387326 86.0389481 -14 77 C-17.56206661 76.18129815 -17.56206661 76.18129815 -21 76 C-24.08400982 73.63206634 -25.76341203 70.25725764 -27.6875 66.9375 C-28.31011719 65.87402344 -28.93273437 64.81054688 -29.57421875 63.71484375 C-31 61 -31 61 -31 59 C-32.32 58.34 -33.64 57.68 -35 57 C-34.360625 56.814375 -33.72125 56.62875 -33.0625 56.4375 C-30.72720677 55.10476569 -30.72720677 55.10476569 -29.96875 52.14453125 C-29.27493946 46.16454516 -33.45094669 41.12037924 -36.4375 36.25 C-37.67071643 34.19591196 -38.89884313 32.13875691 -40.12109375 30.078125 C-40.6720874 29.17481445 -41.22308105 28.27150391 -41.79077148 27.34082031 C-43 25 -43 25 -43 22 C-41.26826173 20.99994361 -39.53648159 19.99995973 -37.8046875 19 C-36.7019751 18.36320312 -35.5992627 17.72640625 -34.46313477 17.0703125 C-32.06886318 15.68823225 -29.67344761 14.3081642 -27.27709961 12.9296875 C-19.74668435 8.59757301 -19.74668435 8.59757301 -12.26171875 4.1875 C-11.29613037 3.61708984 -11.29613037 3.61708984 -10.31103516 3.03515625 C-8.68382669 2.07182703 -7.06237214 1.09879678 -5.44140625 0.125 C-3 -1 -3 -1 0 0 Z " fill="#FABF6C" transform="translate(240,373)"/>
<path d="M0 0 C2.38959643 1.92764131 3.4974273 3.86153924 4.95800781 6.56396484 C5.80866821 8.11458618 5.80866821 8.11458618 6.67651367 9.6965332 C7.27214111 10.80649658 7.86776855 11.91645996 8.48144531 13.06005859 C9.74437064 15.36551224 11.00869633 17.67019932 12.27441406 19.97412109 C12.88978027 21.09979492 13.50514648 22.22546875 14.13916016 23.38525391 C16.28735383 27.27851137 18.51715272 31.11600083 20.79394531 34.93505859 C25.7613845 43.29195829 30.60131972 51.72075106 35.43432617 60.15600586 C39.34702978 66.96160464 43.36852558 73.65104533 47.73144531 80.17724609 C48.85644531 82.49755859 48.85644531 82.49755859 48.85253906 84.61083984 C47.39871928 87.36454555 45.60941966 88.23911049 42.91894531 89.81005859 C42.3777002 90.12837646 41.83645508 90.44669434 41.27880859 90.7746582 C39.96728186 91.54268965 38.65211194 92.30451492 37.33447266 93.06201172 C34.31254091 94.81264804 31.31430379 96.60162074 28.31347656 98.38818359 C26.54738129 99.43122831 24.77997956 100.47200485 23.01168823 101.51132202 C21.82449496 102.21069455 20.63904353 102.9130323 19.45535278 103.61831665 C17.76943142 104.62061073 16.07479679 105.60820376 14.37988281 106.59521484 C13.38907715 107.17795166 12.39827148 107.76068848 11.37744141 108.36108398 C8.85644531 109.49755859 8.85644531 109.49755859 5.85644531 108.49755859 C4.36108398 106.37817383 4.36108398 106.37817383 2.77441406 103.55615234 C2.17951172 102.51007813 1.58460938 101.46400391 0.97167969 100.38623047 C0.01745117 98.67790039 0.01745117 98.67790039 -0.95605469 96.93505859 C-1.62754655 95.74892566 -2.30008736 94.56338598 -2.97363281 93.37841797 C-4.35968144 90.93922419 -5.74212454 88.49803905 -7.12255859 86.05566406 C-10.07765834 80.83938673 -13.11147543 75.66934129 -16.14355469 70.49755859 C-21.21289181 61.82592309 -26.25076889 53.13658531 -31.26855469 44.43505859 C-31.89632813 43.34644531 -32.52410156 42.25783203 -33.17089844 41.13623047 C-34.3268827 39.13025778 -35.47858183 37.12180661 -36.625 35.11035156 C-37.56020396 33.50125947 -38.52293353 31.90736917 -39.52929688 30.34179688 C-40.69824219 28.50146484 -40.69824219 28.50146484 -42.14355469 25.49755859 C-40.96217532 21.39520858 -38.26811392 20.0852692 -34.68261719 18.07177734 C-33.57015625 17.43949219 -32.45769531 16.80720703 -31.31152344 16.15576172 C-30.13072696 15.49851364 -28.94973659 14.84161376 -27.76855469 14.18505859 C-25.48976386 12.89755477 -23.21111735 11.60979548 -20.93261719 10.32177734 C-19.24507324 9.38277588 -19.24507324 9.38277588 -17.5234375 8.42480469 C-15.24143854 7.12358396 -12.98539237 5.77591897 -10.75585938 4.38671875 C-9.6952832 3.72849121 -8.63470703 3.07026367 -7.54199219 2.39208984 C-6.59759277 1.78856689 -5.65319336 1.18504395 -4.68017578 0.56323242 C-2.14355469 -0.50244141 -2.14355469 -0.50244141 0 0 Z " fill="#FAA42E" transform="translate(346.1435546875,310.50244140625)"/>
<path d="M0 0 C7.72248751 1.67445522 15.39318724 3.53531658 23.0625 5.4375 C24.29033203 5.73720703 25.51816406 6.03691406 26.78320312 6.34570312 C33.03082756 7.89667505 39.03781265 9.56599842 45 12 C44.7834375 13.00160156 44.566875 14.00320312 44.34375 15.03515625 C44.06213368 16.37752737 43.78090434 17.71997971 43.5 19.0625 C43.35691406 19.71927734 43.21382813 20.37605469 43.06640625 21.05273438 C42.16278419 25.42024101 41.68648824 29.51566209 42 34 C44.5654594 36.5654594 46.47686668 36.54046087 50 37 C48.68 37.33 47.36 37.66 46 38 C45.5978125 39.85625 45.5978125 39.85625 45.1875 41.75 C43.90642184 47.52867629 42.45600583 53.26333702 41 59 C39.906875 59.226875 38.81375 59.45375 37.6875 59.6875 C33.35861205 61.22829063 32.9548048 62.00153564 31 66 C30.36479388 68.0833715 29.80225637 70.19022238 29.3125 72.3125 C28.93544922 73.91544922 28.93544922 73.91544922 28.55078125 75.55078125 C28.36902344 76.35902344 28.18726563 77.16726563 28 78 C27.14277344 78.02578125 26.28554688 78.0515625 25.40234375 78.078125 C18.51034701 78.42000533 13.4953162 78.67390001 8 83 C3.7783643 87.79212701 2.92145773 92.86503142 2 99 C-3.89424587 98.41124445 -9.27854941 97.22679399 -14.9375 95.5 C-15.70384766 95.27441406 -16.47019531 95.04882812 -17.25976562 94.81640625 C-22.86027378 93.13972622 -22.86027378 93.13972622 -24 92 C-23.5574568 85.49012543 -22.21256373 79.65753131 -20.3125 73.4375 C-17.97641395 65.54201259 -15.84438225 57.61985926 -13.875 49.625 C-13.62347168 48.60647949 -13.37194336 47.58795898 -13.11279297 46.53857422 C-12.628302 44.57668879 -12.14392212 42.61477593 -11.65966797 40.65283203 C-8.26162728 26.98772835 -4.53542936 13.3358267 0 0 Z " fill="#81B531" transform="translate(424,213)"/>
<path d="M0 0 C6.26953125 10.8671875 12.5390625 21.734375 18.80859375 32.6015625 C19.41977051 33.66084961 20.03094727 34.72013672 20.66064453 35.81152344 C21.88978611 37.94220953 23.11862586 40.07306976 24.34716797 42.20410156 C27.25736055 47.25128775 30.17037927 52.29677135 33.09432983 57.33599854 C34.1274294 59.11680001 35.15956171 60.89815858 36.19140625 62.6796875 C37.48506088 64.91257083 38.78052164 67.1444091 40.078125 69.375 C43.24102569 74.83882404 46.25298514 80.31511068 49 86 C46.04635938 88.07610971 43.04077385 90.05390474 40 92 C39.16082031 92.556875 38.32164062 93.11375 37.45703125 93.6875 C34.94209392 95.18476501 32.85172787 96.3249533 30 97 C27.48229806 96.14632137 25.83724757 95.04931396 23.7890625 93.3671875 C20.68776189 90.99719795 17.48119076 90.87513435 13.671875 90.90234375 C12.47304688 90.90717773 12.47304688 90.90717773 11.25 90.91210938 C10.425 90.92048828 9.6 90.92886719 8.75 90.9375 C7.90953125 90.94201172 7.0690625 90.94652344 6.203125 90.95117188 C4.13538599 90.96292039 2.06768376 90.98085478 0 91 C-0.40613525 90.2879541 -0.81227051 89.5759082 -1.23071289 88.84228516 C-8.80189921 75.57175171 -16.38021705 62.30520422 -24 49.0625 C-24.62084473 47.98299072 -25.24168945 46.90348145 -25.88134766 45.79125977 C-29.70308808 39.1720301 -33.62141907 32.63742747 -37.77734375 26.22265625 C-39 24 -39 24 -39 21 C-38.30551758 20.61255615 -37.61103516 20.2251123 -36.89550781 19.82592773 C-33.67967817 18.03096541 -30.46483649 16.23424044 -27.25 14.4375 C-26.15816406 13.82841797 -25.06632812 13.21933594 -23.94140625 12.59179688 C-17.35513478 8.90894094 -10.82543708 5.15223494 -4.35449219 1.26977539 C-2 0 -2 0 0 0 Z " fill="#FA5993" transform="translate(291,342)"/>
<path d="M0 0 C4.48427978 4.16695645 7.91401401 8.82192511 11.4375 13.8125 C12.53963295 15.36119801 13.64249334 16.90937861 14.74609375 18.45703125 C15.28089355 19.21064941 15.81569336 19.96426758 16.36669922 20.74072266 C18.48498787 23.67086364 20.69105934 26.5296548 22.91821289 29.37768555 C24 31 24 31 24 33 C22.07463615 34.52605205 20.14823186 35.92573238 18.125 37.3125 C16.82897203 38.21940213 15.53342174 39.12698717 14.23828125 40.03515625 C13.54686035 40.51742676 12.85543945 40.99969727 12.14306641 41.49658203 C8.50806808 44.04662985 4.9105052 46.64813511 1.3125 49.25 C0.56073486 49.79293701 -0.19103027 50.33587402 -0.96557617 50.89526367 C-6.56107312 54.94278129 -12.12963339 59.02600313 -17.6875 63.125 C-18.4727002 63.70362793 -19.25790039 64.28225586 -20.06689453 64.87841797 C-23.87250589 67.6849277 -27.67184936 70.49934282 -31.4609375 73.328125 C-32.15485596 73.84358887 -32.84877441 74.35905273 -33.5637207 74.89013672 C-34.86466207 75.85658663 -36.16283476 76.82677839 -37.45776367 77.80126953 C-41.77440849 81 -41.77440849 81 -44 81 C-45.54348157 79.03221473 -46.96742525 77.06261197 -48.375 75 C-51.28038946 70.80641814 -54.22239452 66.67014008 -57.36328125 62.6484375 C-58.19303467 61.57916016 -58.19303467 61.57916016 -59.03955078 60.48828125 C-60.12586 59.09523049 -61.2217216 57.70956887 -62.32763672 56.33203125 C-63.06844482 55.37490234 -63.06844482 55.37490234 -63.82421875 54.3984375 C-64.49070435 53.55804932 -64.49070435 53.55804932 -65.1706543 52.70068359 C-66 51 -66 51 -65.81591797 48.93554688 C-64.42427556 45.63424794 -61.3228093 44.05372628 -58.4375 42.125 C-57.15956599 41.24564886 -55.88221919 40.36544371 -54.60546875 39.484375 C-53.98591309 39.06091797 -53.36635742 38.63746094 -52.72802734 38.20117188 C-49.88801948 36.22704943 -47.17032504 34.09925579 -44.453125 31.9609375 C-43 31 -43 31 -41 31 C-40.95101562 30.39671875 -40.90203125 29.7934375 -40.8515625 29.171875 C-40.77679688 28.37265625 -40.70203125 27.5734375 -40.625 26.75 C-40.55539063 25.96109375 -40.48578125 25.1721875 -40.4140625 24.359375 C-39.49439287 19.11899332 -37.15825788 17.10838591 -32.9453125 14.14257812 C-32.30335937 13.70365234 -31.66140625 13.26472656 -31 12.8125 C-30.03707031 12.13670898 -30.03707031 12.13670898 -29.0546875 11.44726562 C-24.4015377 8.20076885 -24.4015377 8.20076885 -22 7 C-21.505 7.99 -21.505 7.99 -21 9 C-15.39198931 9.98964895 -12.54881467 9.01940438 -7.7878418 5.78100586 C-5.15710912 3.89606057 -2.56649566 1.97181983 0 0 Z " fill="#AC69D6" transform="translate(81,90)"/>
<path d="M0 0 C7.0492582 1.53628255 14.05946847 3.20312476 21.0625 4.9375 C22.09955078 5.18951172 23.13660156 5.44152344 24.20507812 5.70117188 C29.97959282 7.1329 35.47916417 8.77973589 41 11 C39.97652962 19.52303786 37.79828424 27.51892718 35.38427734 35.7331543 C33.61047027 41.7917907 31.99164938 47.86610903 30.5 54 C28.57664339 61.87656614 26.42817786 69.66944768 24.17114258 77.45654297 C22.27470799 84.00291899 20.48651083 90.57055353 18.76171875 97.1640625 C18.23461173 99.1265225 17.64258004 101.07225989 17 103 C10.21195211 102.08269623 2.74746725 100.83164483 -3 97 C-2.68289063 96.41734375 -2.36578125 95.8346875 -2.0390625 95.234375 C-0.23925459 91.36411138 -0.17991034 88.09490717 -1 84 C-4.20435942 75.64577723 -8.81805392 67.65453195 -14.1640625 60.50390625 C-15.51810603 56.44810296 -14.10720731 53.02861991 -13 49 C-12.55224059 47.15715686 -12.10839642 45.31335911 -11.66796875 43.46875 C-9.18979342 33.42896277 -6.66550966 23.42279317 -3.64916992 13.52929688 C-2.28281601 9.04760932 -1.10752314 4.55091327 0 0 Z " fill="#F95993" transform="translate(368,198)"/>
<path d="M0 0 C4.11783092 2.97885641 6.91766602 6.34004517 9.75 10.5 C10.61590948 11.74307872 11.48312551 12.98524822 12.3515625 14.2265625 C12.78758789 14.85208008 13.22361328 15.47759766 13.67285156 16.12207031 C15.76563492 19.08338186 17.93990006 21.98145655 20.125 24.875 C20.87007813 25.86242187 21.61515625 26.84984375 22.3828125 27.8671875 C22.91648437 28.57101563 23.45015625 29.27484375 24 30 C22.61366659 33.27402212 21.15493288 34.92813248 18.28125 36.99609375 C17.52320068 37.54789307 16.76515137 38.09969238 15.98413086 38.66821289 C15.16436768 39.25207764 14.34460449 39.83594238 13.5 40.4375 C12.64994385 41.05294678 11.7998877 41.66839355 10.92407227 42.30249023 C8.28789227 44.20895883 5.64407834 46.10450745 3 48 C1.45628733 49.11615934 -0.0867164 50.23330003 -1.62890625 51.3515625 C-4.57329684 53.48596365 -7.52293912 55.61277198 -10.4765625 57.734375 C-13.67532648 60.03546213 -16.85374439 62.36216567 -20.0234375 64.703125 C-20.84577881 65.30697021 -21.66812012 65.91081543 -22.51538086 66.53295898 C-24.09849512 67.69607962 -25.67762563 68.8646473 -27.25219727 70.03930664 C-27.96174561 70.55871826 -28.67129395 71.07812988 -29.40234375 71.61328125 C-30.02616943 72.07516846 -30.64999512 72.53705566 -31.29272461 73.01293945 C-33 74 -33 74 -36 74 C-37.578125 72.57421875 -37.578125 72.57421875 -39.25 70.6875 C-43.40523906 66.35767106 -47.51489197 64.50385352 -53.41015625 63.30859375 C-57.6972748 61.74582475 -59.49481939 59.53689684 -61.9375 55.875 C-62.33517578 55.31167969 -62.73285156 54.74835938 -63.14257812 54.16796875 C-64.1116878 52.79019836 -65.05824743 51.39661265 -66 50 C-64.68472791 46.96017053 -63.49276535 45.32830328 -60.75390625 43.4765625 C-60.09140869 43.02031494 -59.42891113 42.56406738 -58.74633789 42.09399414 C-58.02567139 41.60922607 -57.30500488 41.12445801 -56.5625 40.625 C-55.00912487 39.55525882 -53.45709008 38.48356928 -51.90625 37.41015625 C-51.09800781 36.85215332 -50.28976563 36.29415039 -49.45703125 35.71923828 C-45.43793115 32.9069864 -41.50119421 29.98579412 -37.5625 27.0625 C-25.15886838 17.88116867 -12.69700643 8.77305721 0 0 Z " fill="#955AB9" transform="translate(143,176)"/>
<path d="M0 0 C1.89062144 0.05481043 3.78124671 0.10948896 5.671875 0.1640625 C7.69798046 0.23251201 9.72402367 0.30282947 11.75 0.375 C12.70777344 0.40561523 13.66554688 0.43623047 14.65234375 0.46777344 C32.23495835 1.20139287 32.23495835 1.20139287 39 7 C43.71699769 12.40200287 43.66977325 17.32339592 43.625 24.3125 C43.65722656 25.30701172 43.68945312 26.30152344 43.72265625 27.32617188 C43.73238916 34.73778207 41.99929062 39.49006031 37 45 C30.18463101 50.89094394 22.43247717 49.39120457 14 49 C12.81390137 48.95601074 11.62780273 48.91202148 10.40576172 48.86669922 C7.08619161 48.73776375 3.76981155 48.58750954 0.45239258 48.41412354 C-1.52789413 48.31424539 -3.50908689 48.2328845 -5.49023438 48.15185547 C-12.6263273 47.72320848 -18.78359901 47.29591425 -24 42 C-28.139334 36.56721769 -28.60181459 31.07898957 -28.4375 24.4375 C-28.44458984 23.62603516 -28.45167969 22.81457031 -28.45898438 21.97851562 C-28.38064066 14.5117574 -26.4175835 8.4175835 -21 3 C-14.4483677 -1.13037689 -7.4932778 -0.2823462 0 0 Z " fill="#040303" transform="translate(300,16)"/>
<path d="M0 0 C2.46206737 1.17089253 3.40841304 2.44200459 4.96240234 4.67602539 C5.50896484 5.44881836 6.05552734 6.22161133 6.61865234 7.01782227 C7.17810547 7.83186523 7.73755859 8.6459082 8.31396484 9.48461914 C9.425242 11.06974695 10.53721719 12.65438562 11.64990234 14.23852539 C12.18969727 15.01856934 12.72949219 15.79861328 13.28564453 16.60229492 C15.39616564 19.56363153 17.65637592 22.39542218 19.95703125 25.2109375 C20.28106934 25.77562744 20.60510742 26.34031738 20.93896484 26.92211914 C19.63730605 30.82709552 17.26270539 32.07635902 14.00146484 34.29711914 C12.71451807 35.19485685 11.42808419 36.09333013 10.14208984 36.99243164 C9.45695312 37.46841797 8.77181641 37.9444043 8.06591797 38.43481445 C4.43313598 40.97509313 0.84302817 43.5740422 -2.74853516 46.17211914 C-3.49965576 46.71441162 -4.25077637 47.2567041 -5.0246582 47.81542969 C-10.64520666 51.8797558 -16.2322999 55.98815866 -21.81103516 60.10961914 C-27.56839745 64.35727833 -33.32593988 68.60446049 -39.12353516 72.79711914 C-39.70135742 73.22017334 -40.27917969 73.64322754 -40.87451172 74.07910156 C-44.8296989 76.92211914 -44.8296989 76.92211914 -47.06103516 76.92211914 C-48.37036133 75.4284668 -48.37036133 75.4284668 -49.85400391 73.33618164 C-50.67155151 72.19318604 -50.67155151 72.19318604 -51.50561523 71.02709961 C-52.3683606 69.79950928 -52.3683606 69.79950928 -53.24853516 68.54711914 C-53.83207764 67.72743652 -54.41562012 66.90775391 -55.0168457 66.06323242 C-56.70531792 63.68776879 -58.38471702 61.30616986 -60.06103516 58.92211914 C-60.48803711 58.3169043 -60.91503906 57.71168945 -61.35498047 57.08813477 C-63.26920018 54.37451554 -65.17327935 51.65421664 -67.06103516 48.92211914 C-62.90567742 44.47646696 -58.29367078 40.98552637 -53.37353516 37.42211914 C-52.53628906 36.81045898 -51.69904297 36.19879883 -50.83642578 35.56860352 C-44.53027082 30.96809527 -38.19920399 26.4016743 -31.86450195 21.84057617 C-17.63237619 11.93198567 -17.63237619 11.93198567 -4.06640625 1.1784668 C-2.06103516 -0.07788086 -2.06103516 -0.07788086 0 0 Z " fill="#23CEF5" transform="translate(114.06103515625,135.077880859375)"/>
<path d="M0 0 C5.96536896 3.65455197 11.64967284 9.34563479 13.84375 16.11328125 C14.44227288 19.18989888 14.45971785 22.1442385 14.4765625 25.27734375 C14.49074219 26.47101563 14.50492188 27.6646875 14.51953125 28.89453125 C13.98942931 36.96286251 10.35263194 42.66384561 4.5390625 48.08984375 C-2.26073744 53.72931086 -8.49937689 55.10439582 -17.32421875 54.87890625 C-24.57356956 53.85881306 -31.20271411 50.46207335 -36.2109375 45.08984375 C-37.53125 43.296875 -37.53125 43.296875 -38.7109375 41.40234375 C-39.12085938 40.74621094 -39.53078125 40.09007812 -39.953125 39.4140625 C-43.3471326 33.01226196 -43.79548919 26.50574334 -42.7109375 19.40234375 C-40.18409973 11.88433174 -36.51605574 5.63975758 -29.7109375 1.40234375 C-29.05480469 0.99242187 -28.39867188 0.5825 -27.72265625 0.16015625 C-19.07877078 -4.42252526 -8.79586461 -4.02546898 0 0 Z " fill="#030304" transform="translate(102.7109375,344.59765625)"/>
<path d="M0 0 C8.44579939 1.88051002 16.85093908 3.92208055 25.25 6 C26.26707031 6.2489502 27.28414063 6.49790039 28.33203125 6.75439453 C34.33044469 8.24715485 40.16256695 9.96537603 46 12 C44.375 18.5 44.375 18.5 43.84375 20.6184082 C42.73102055 25.05932288 41.62980263 29.50284869 40.5390625 33.94921875 C37.96493644 44.40352383 35.32908828 54.75665144 32 65 C26.06 65.99 26.06 65.99 20 67 C19.030625 65.700625 18.06125 64.40125 17.0625 63.0625 C9.12665839 52.99251772 1.60477281 47.13383264 -10 42 C-8.99430665 34.20962909 -7.18564871 26.87864048 -4.89892578 19.38916016 C-2.95426844 12.98552644 -1.40033621 6.54628717 0 0 Z " fill="#97D23A" transform="translate(308,182)"/>
<path d="M0 0 C2.10600464 1.6404227 3.06264424 3.03975375 4.31469727 5.3918457 C4.73944336 6.17495117 5.16418945 6.95805664 5.60180664 7.76489258 C6.03170898 8.5840918 6.46161133 9.40329102 6.90454102 10.24731445 C7.76982645 11.85831394 8.63569652 13.46899957 9.50219727 15.0793457 C9.9045459 15.83683105 10.30689453 16.59431641 10.72143555 17.37475586 C11.64572362 19.07391551 12.63944202 20.73511199 13.65063477 22.3840332 C14.84204102 24.43481445 14.84204102 24.43481445 14.84204102 26.43481445 C13.31063477 27.27399414 13.31063477 27.27399414 11.74829102 28.13012695 C2.62446566 33.15314077 -6.41853384 38.29984898 -15.40795898 43.55981445 C-16.42905762 44.15697266 -17.45015625 44.75413086 -18.50219727 45.36938477 C-20.48099162 46.52706416 -22.45967439 47.68493433 -24.43823242 48.84301758 C-28.13266728 51.00529004 -31.82754204 53.16640696 -35.53295898 55.30981445 C-37.12237305 56.23407227 -37.12237305 56.23407227 -38.74389648 57.17700195 C-41.15795898 58.43481445 -41.15795898 58.43481445 -43.15795898 58.43481445 C-43.43994141 57.92619873 -43.72192383 57.41758301 -44.01245117 56.89355469 C-45.31049077 54.55288418 -46.60922057 52.21259729 -47.90795898 49.87231445 C-48.35139648 49.07245117 -48.79483398 48.27258789 -49.25170898 47.44848633 C-49.68999023 46.65893555 -50.12827148 45.86938477 -50.57983398 45.0559082 C-51.01102539 44.2745752 -51.4422168 43.49324219 -51.88647461 42.68823242 C-52.7034651 41.24030188 -53.54423147 39.80539455 -54.41381836 38.38842773 C-55.39848705 36.77796057 -56.28769069 35.10986968 -57.15795898 33.43481445 C-55.96915654 29.86840711 -55.40888639 29.74088283 -52.19702148 28.0793457 C-51.34551514 27.62938232 -50.49400879 27.17941895 -49.61669922 26.71582031 C-48.2139978 25.98890991 -48.2139978 25.98890991 -46.78295898 25.24731445 C-37.57054926 20.35782279 -28.54959812 15.21446817 -19.59545898 9.87231445 C-19.00992249 9.5234317 -18.42438599 9.17454895 -17.82110596 8.81509399 C-11.08036626 4.87543656 -11.08036626 4.87543656 -4.55664062 0.59912109 C-2.15795898 -0.56518555 -2.15795898 -0.56518555 0 0 Z " fill="#F993B8" transform="translate(277.157958984375,297.565185546875)"/>
<path d="M0 0 C8.56533553 1.35126873 16.79272185 3.49889592 25.125 5.875 C34.64245582 8.5591235 44.15295588 11.09296369 53.8125 13.2109375 C56.68882003 13.9229677 59.28783294 14.81856359 62 16 C59.83322193 25.38203908 57.64080064 34.7371917 55 44 C49.60771286 43.4452625 44.67191322 42.45642041 39.5 40.8125 C32.30587256 38.60576754 25.05877249 36.72551465 17.75 34.9375 C9.40074873 32.89015143 1.16283365 30.71031586 -7 28 C-4.83289621 18.6165506 -2.61822061 9.27012691 0 0 Z " fill="#F893B8" transform="translate(369,153)"/>
<path d="M0 0 C2.875 1.75 2.875 1.75 5 5 C6.37623871 12.53601683 5.05699471 18.24343924 0.99609375 24.6484375 C-0.38414676 27.90688764 -0.10996943 29.66124735 1 33 C3.32191613 35.12526701 3.32191613 35.12526701 6.25 36.8125 C11.60744833 40.4839893 15.01949418 43.72492367 17 50 C18.11856841 56.44702156 16.81734469 61.12749248 13.97265625 66.8984375 C12.54546273 69.98209257 12 72.60961401 12 76 C13.65121291 78.36913157 15.55750531 79.69233498 17.91015625 81.328125 C22.77966252 84.78683973 25.65662269 87.43447889 28 93 C28.44796416 97.47964158 28.51475368 99.22786948 26 103 C23.0249986 103.7197584 20.97439032 104.20065332 18 104 C15.49712616 102.22164227 14.35912657 100.84807823 13.16796875 98.03515625 C11.7086104 95.49226092 10.19403716 94.61628429 7.6875 93.125 C2.36512194 89.73647634 -1.54292744 85.93970585 -4 80 C-5.05507826 72.42564869 -4.06212231 66.7686508 -0.09375 60.25390625 C1.19054937 57.60733218 1.3506328 55.90733034 1 53 C-1.07415664 50.97003329 -1.07415664 50.97003329 -4 49 C-10.33704083 43.96981973 -14.53702082 39.9014427 -15.8125 31.625 C-16.28733676 25.85912511 -15.14275455 21.14837855 -12.4375 16.0625 C-11.06234562 13.13282328 -10.7780363 11.52080364 -10.5625 8.375 C-10.28970902 5.26413363 -10.08025539 4.12186929 -8.3125 1.4375 C-5.20824383 -0.49217275 -3.59599652 -0.66048916 0 0 Z " fill="#050505" transform="translate(30,229)"/>
<path d="M0 0 C2.47892955 1.91231708 3.78960061 3.57920122 5.1875 6.375 C7.10864736 9.15735135 8.60676869 10.16598024 11.4375 11.9375 C16.56226163 15.17068295 19.05786174 18.17358521 21 24 C21.68382383 30.41817508 21.60611433 35.58968409 18.4375 41.3125 C16.70900826 44.43977118 15.99373817 46.05277831 15.5625 49.6875 C17.52099034 54.20054296 20.4719688 55.71030517 24.546875 58.30078125 C28.64501093 61.13945821 30.42483159 64.27449476 32 69 C32.81847195 76.68194389 32.01112232 81.94002943 28.1640625 88.61328125 C26.91655081 91.17109883 26.6124624 93.05258017 26.4375 95.875 C26.22816579 98.9076623 26.06204644 99.90215753 24.375 102.5625 C20.99476989 104.60842875 18.87610916 104.62294612 15 104 C12.5625 102.25 12.5625 102.25 11 99 C9.84463023 91.50099622 10.84759441 86.31580083 14.8671875 79.96484375 C16.51408779 77.1083236 16.74387522 75.19866343 16 72 C13.90809543 69.85716187 13.90809543 69.85716187 11 68 C4.89564897 63.47623987 0.79542442 59.07270666 -0.4140625 51.359375 C-0.74801595 45.06698895 0.60036183 41.34998924 3.84765625 36.05078125 C5.78043088 32.61109758 6.04209402 30.8210114 5 27 C2.64670177 24.80654844 0.14869536 22.9419119 -2.44140625 21.03515625 C-6.59783601 17.72904952 -9.38400271 14.09108549 -10.43359375 8.82421875 C-10.62840815 5.59502256 -10.43871593 3.53995806 -8.375 1 C-5.296549 -0.29618989 -3.31123632 -0.48288863 0 0 Z " fill="#040404" transform="translate(236,18)"/>
<path d="M0 0 C3.0625 0.4375 3.0625 0.4375 5.4375 2 C7.64896281 5.31719422 7.48910463 7.52695759 7.0625 11.4375 C6.4025 12.4275 5.7425 13.4175 5.0625 14.4375 C4.8908145 16.28663732 4.79598943 18.14347914 4.75 20 C4.22449795 27.48387398 1.90231198 34.14330968 -3.6875 39.375 C-10.09968318 43.4442701 -16.34491017 44.7402301 -23.87109375 45.12890625 C-26.15750531 45.26089774 -26.15750531 45.26089774 -27.9375 47.4375 C-28.30102411 49.82348764 -28.58009526 52.22269385 -28.8125 54.625 C-29.68384543 62.14168804 -31.09864357 67.02974897 -36.8125 72.25 C-42.72901463 76.39156024 -48.07952643 76.71791071 -55.1328125 76.99609375 C-58.26767195 77.48946299 -59.52322052 78.46359338 -61.9375 80.4375 C-65.26118343 80.85296043 -67.22996779 80.78170486 -70.25 79.3125 C-72.56862109 76.73625435 -72.79753746 74.86658225 -72.9375 71.4375 C-71.37079226 67.43197627 -69.23845594 65.71326301 -65.6328125 63.53125 C-61.0073495 61.65425052 -56.16298966 61.39787127 -51.23046875 60.9921875 C-48.04321215 60.66376272 -48.04321215 60.66376272 -46.01171875 59.26953125 C-44.44424808 56.59628126 -44.59858541 54.3280857 -44.5625 51.25 C-44.08237005 42.94005856 -41.4158295 38.48265192 -35.3125 33 C-30.33025282 28.86315675 -25.31448191 29.21785549 -19.06640625 29.01171875 C-15.89785083 28.65239114 -15.89785083 28.65239114 -13.5546875 26.78515625 C-11.47181817 23.76147397 -11.50432123 21.83462006 -11.5 18.1875 C-11.16936396 11.01027856 -9.1042396 7.0387263 -4.45703125 1.75390625 C-2.9375 0.4375 -2.9375 0.4375 0 0 Z " fill="#040404" transform="translate(458.9375,377.5625)"/>
<path d="M0 0 C0.66 0 1.32 0 2 0 C6.95 8.58 11.9 17.16 17 26 C14.38575408 28.61424592 12.54091367 29.97100519 9.37890625 31.71484375 C8.45255371 32.23095215 7.52620117 32.74706055 6.57177734 33.27880859 C5.57871582 33.82617676 4.5856543 34.37354492 3.5625 34.9375 C-2.62531807 38.37147969 -8.78190781 41.82148455 -14.79296875 45.55859375 C-15.69281494 46.11619385 -16.59266113 46.67379395 -17.51977539 47.24829102 C-19.22578089 48.31352526 -20.92455527 49.39045013 -22.61499023 50.48022461 C-23.38399658 50.95854736 -24.15300293 51.43687012 -24.9453125 51.9296875 C-25.61062988 52.35491699 -26.27594727 52.78014648 -26.96142578 53.21826172 C-29.75776426 54.29058217 -31.2074169 54.04285481 -34 53 C-35.66918945 51.03808594 -35.66918945 51.03808594 -37.11328125 48.484375 C-37.63857422 47.56269531 -38.16386719 46.64101563 -38.70507812 45.69140625 C-39.23552734 44.72074219 -39.76597656 43.75007813 -40.3125 42.75 C-40.86228516 41.79480469 -41.41207031 40.83960938 -41.97851562 39.85546875 C-46.35321564 32.04078722 -46.35321564 32.04078722 -46 27 C-45.24082275 26.56768066 -44.48164551 26.13536133 -43.69946289 25.68994141 C-25.71048053 15.45512314 -25.71048053 15.45512314 -7.8125 5.0625 C-7.11970947 4.65660645 -6.42691895 4.25071289 -5.71313477 3.83251953 C-2.68305164 2.15192391 -2.68305164 2.15192391 0 0 Z " fill="#F8BE6B" transform="translate(205,337)"/>
<path d="M0 0 C1.68505859 1.96191406 1.68505859 1.96191406 3.1484375 4.515625 C3.67824219 5.43730469 4.20804687 6.35898437 4.75390625 7.30859375 C5.28886719 8.27925781 5.82382812 9.24992187 6.375 10.25 C6.93316406 11.20519531 7.49132812 12.16039062 8.06640625 13.14453125 C12.01087414 20.14717919 12.01087414 20.14717919 11.96679688 23.60400391 C10.63201746 26.91196482 8.98415446 27.66895396 5.8828125 29.3828125 C4.27237061 30.29075562 4.27237061 30.29075562 2.62939453 31.21704102 C1.47294434 31.84666748 0.31649414 32.47629395 -0.875 33.125 C-2.05829901 33.78225452 -3.24074982 34.44103835 -4.42236328 35.10131836 C-6.21350148 36.10170323 -8.00532038 37.1005961 -9.80099487 38.09281921 C-13.52053843 40.15156659 -17.18150283 42.28528499 -20.8125 44.49609375 C-21.67504395 45.0173584 -22.53758789 45.53862305 -23.42626953 46.07568359 C-25.02773953 47.04806169 -26.62281249 48.03107496 -28.21044922 49.02587891 C-28.92217285 49.45175293 -29.63389648 49.87762695 -30.3671875 50.31640625 C-30.97675293 50.69224854 -31.58631836 51.06809082 -32.21435547 51.45532227 C-34 52 -34 52 -36.04077148 51.39575195 C-38.47957485 49.65835148 -39.51205553 47.95792754 -40.98046875 45.3515625 C-41.50447266 44.42859375 -42.02847656 43.505625 -42.56835938 42.5546875 C-43.10267578 41.58789062 -43.63699219 40.62109375 -44.1875 39.625 C-44.73341797 38.6659375 -45.27933594 37.706875 -45.84179688 36.71875 C-50.2111156 28.94385324 -50.2111156 28.94385324 -51 25 C-50.51982422 24.74009277 -50.03964844 24.48018555 -49.54492188 24.21240234 C-35.90937315 16.81418717 -22.47804833 9.0993217 -9.11279297 1.22412109 C-5.51197805 -0.86213798 -4.06250346 -1.3343708 0 0 Z " fill="#F9A42E" transform="translate(341,263)"/>
<path d="M0 0 C7.81535355 4.39613637 12.76453453 17.16319848 16.0546875 25.15576172 C16.0546875 26.14576172 16.0546875 27.13576172 16.0546875 28.15576172 C13.4296875 28.96826172 13.4296875 28.96826172 10.0546875 29.15576172 C8.57738114 28.00674566 7.10658874 26.84249914 5.734375 25.56982422 C-0.05814954 20.69332681 -6.28553151 19.71610235 -13.66015625 19.81982422 C-16.13950147 19.95212252 -16.13950147 19.95212252 -17.9453125 22.15576172 C-18.40614851 26.72846116 -18.40614851 26.72846116 -16.9453125 30.96826172 C-14.37754282 32.49287496 -11.85544725 32.98482832 -8.953125 33.61669922 C-6.29488658 34.33038969 -4.20117382 35.60485706 -1.9453125 37.15576172 C-5.07251946 40.59559377 -8.36102531 42.74978274 -12.390625 45.04638672 C-13.00171112 45.39586365 -13.61279724 45.74534058 -14.24240112 46.10540771 C-15.52653189 46.83786597 -16.81246767 47.56716787 -18.10009766 48.29345703 C-20.07541694 49.40864348 -22.04385254 50.53529825 -24.01171875 51.66357422 C-33.66605352 57.15576172 -33.66605352 57.15576172 -35.9453125 57.15576172 C-40.28746161 45.35442074 -44.42489517 32.84466115 -38.8828125 20.65576172 C-31.93279063 8.96268871 -14.3003614 -3.48263112 0 0 Z " fill="#F6387F" transform="translate(200.9453125,285.84423828125)"/>
<path d="M0 0 C6.30452205 4.45800931 12.3173541 9.49013202 14.80078125 16.98046875 C4.53436564 24.36508349 -6.85380856 30.42537955 -18.19921875 35.98046875 C-18.31191318 29.86992635 -18.09526243 24.02876361 -17.19921875 17.98046875 C-19.77400917 15.40567833 -20.99296214 14.98783506 -24.69921875 14.85546875 C-28.58845681 16.10558098 -29.53528845 17.23267109 -31.4140625 20.77441406 C-32.93820894 25.0568106 -32.60871461 29.43061415 -32.44921875 33.91796875 C-32.42214844 35.37299805 -32.42214844 35.37299805 -32.39453125 36.85742188 C-32.34772542 39.23281769 -32.2821826 41.60610719 -32.19921875 43.98046875 C-33.84921875 44.64046875 -35.49921875 45.30046875 -37.19921875 45.98046875 C-39.90067146 41.66774349 -42.56520246 37.33456116 -45.19921875 32.98046875 C-45.82699219 31.94535156 -46.45476562 30.91023438 -47.1015625 29.84375 C-47.64941406 28.89886719 -48.19726562 27.95398438 -48.76171875 26.98046875 C-49.25800781 26.13484375 -49.75429687 25.28921875 -50.265625 24.41796875 C-51.41643796 21.41333576 -51.18822895 20.01504152 -50.19921875 16.98046875 C-46.50308377 9.12265507 -40.42603335 4.48325197 -33.19921875 -0.01953125 C-32.47863281 -0.47714844 -31.75804687 -0.93476563 -31.015625 -1.40625 C-21.21927737 -6.68405543 -9.40609179 -5.35854485 0 0 Z " fill="#F6387F" transform="translate(300.19921875,240.01953125)"/>
<path d="M0 0 C7.43162308 0.46922901 15.00554324 3.32322165 22.125 5.375 C31.71052642 8.10165385 41.30912872 10.67476859 51 13 C49.76470691 22.73484704 47.0827212 31.72830419 44 41 C37.06216342 40.66962683 30.86183895 39.20132051 24.26196289 37.15844727 C16.50502331 34.78204381 8.64390647 32.87056896 0.75927734 30.96801758 C-0.23378418 30.72591553 -1.2268457 30.48381348 -2.25 30.234375 C-3.58804687 29.91291504 -3.58804687 29.91291504 -4.953125 29.58496094 C-7 29 -7 29 -8 28 C-7.5077893 21.99907503 -6.19624319 16.407403 -4.5625 10.625 C-4.34529297 9.81933594 -4.12808594 9.01367188 -3.90429688 8.18359375 C-3.68966797 7.41402344 -3.47503906 6.64445313 -3.25390625 5.8515625 C-3.06127197 5.15885254 -2.8686377 4.46614258 -2.67016602 3.75244141 C-2 2 -2 2 0 0 Z " fill="#B8E671" transform="translate(304,135)"/>
<path d="M0 0 C3.00282988 0.65516288 6.00181415 1.32397593 9 2 C10.24910156 2.27972656 11.49820312 2.55945313 12.78515625 2.84765625 C26.06852852 5.86838769 39.11966886 9.55043106 52 14 C51.3113884 19.7749473 50.00217432 25.26115998 48.5 30.875 C48.27441406 31.74125 48.04882812 32.6075 47.81640625 33.5 C46.12871469 39.87128531 46.12871469 39.87128531 45 41 C38.0991038 40.91306505 31.67394905 39.26588376 25.125 37.25 C19.5181816 35.57130274 13.92353758 33.94500536 8.2265625 32.59765625 C7.3072998 32.38012695 6.38803711 32.16259766 5.44091797 31.93847656 C3.67414593 31.52748005 1.90494946 31.12674342 0.13330078 30.73730469 C-1.93564492 30.25302063 -3.973218 29.63813952 -6 29 C-7.18105773 25.45682681 -6.73531264 24.09985073 -5.8203125 20.52734375 C-5.55089844 19.46322266 -5.28148437 18.39910156 -5.00390625 17.30273438 C-4.71386719 16.19220703 -4.42382812 15.08167969 -4.125 13.9375 C-3.84269531 12.82310547 -3.56039063 11.70871094 -3.26953125 10.56054688 C-1.16137422 2.32274845 -1.16137422 2.32274845 0 0 Z " fill="#96D23A" transform="translate(445,173)"/>
<path d="M0 0 C9.23872377 -0.79308322 19.67936985 3.05935411 27.24609375 8.2421875 C33.35287568 14.00553003 37.22472834 22.09008044 37.61328125 30.44921875 C37.68091664 35.8846448 37.47477329 40.98779985 36.46875 46.33984375 C28.47251013 44.88868276 20.67784437 42.86332448 12.84375 40.71484375 C11.64878906 40.39 10.45382812 40.06515625 9.22265625 39.73046875 C6.30386547 38.93655766 3.38593675 38.13962473 0.46875 37.33984375 C2.10067223 33.46200874 4.01825257 32.32897311 7.7109375 30.328125 C10.20775611 28.92435809 11.83860574 27.71713746 13.46875 25.33984375 C13.6403867 21.70744562 13.6403867 21.70744562 12.46875 18.33984375 C10.01809061 16.07769662 8.48385004 16.33927394 5.15625 16.46484375 C-4.17307463 18.6785818 -9.36675615 24.59310298 -14.53125 32.33984375 C-16.18125 32.00984375 -17.83125 31.67984375 -19.53125 31.33984375 C-18.93561324 27.98261836 -18.25256778 24.67164492 -17.53125 21.33984375 C-17.39122559 20.61651855 -17.25120117 19.89319336 -17.10693359 19.14794922 C-14.26611696 4.8022677 -14.26611696 4.8022677 -10.3671875 1.515625 C-6.90567377 0.38925942 -3.57135039 0.47948686 0 0 Z " fill="#F4387E" transform="translate(448.53125,121.66015625)"/>
<path d="M0 0 C4.89437932 2.54640005 8.99968666 5.61296791 12.890625 9.50390625 C13.56572445 15.85827983 11.72391908 21.40061966 9.890625 27.44140625 C9.46136719 28.89643555 9.46136719 28.89643555 9.0234375 30.38085938 C8.32088083 32.75784277 7.60978099 35.13190283 6.890625 37.50390625 C4.415625 37.99890625 4.415625 37.99890625 1.890625 38.50390625 C1.70886719 37.49070313 1.52710938 36.4775 1.33984375 35.43359375 C1.08640918 34.08194272 0.83247635 32.73038506 0.578125 31.37890625 C0.46017578 30.71375 0.34222656 30.04859375 0.22070312 29.36328125 C-1.11136303 22.39555057 -3.46511869 16.96680659 -9.109375 12.50390625 C-12.34328831 11.98648012 -14.12424151 11.94566394 -16.984375 13.56640625 C-18.79001602 16.67612134 -18.52779714 18.97720537 -18.109375 22.50390625 C-16.81365117 24.52847473 -15.4820432 26.53069572 -14.109375 28.50390625 C-13.984375 31.18359375 -13.984375 31.18359375 -14.109375 33.50390625 C-23.04285453 32.21115651 -31.50695969 29.73369561 -40.11523438 27.10546875 C-43.1037524 26.20393736 -46.10561497 25.35313683 -49.109375 24.50390625 C-45.59718629 13.85180759 -39.966217 4.26922893 -30.109375 -1.49609375 C-20.54817529 -6.10390084 -9.3453809 -4.03969051 0 0 Z " fill="#F6387F" transform="translate(373.109375,100.49609375)"/>
<path d="M0 0 C3.80304929 1.2676831 4.21141282 2.51139703 6.3125 5.875 C10.01016028 11.59577941 13.94120487 17.09241844 18 22.5625 C18.60513428 23.37871826 19.21026855 24.19493652 19.83374023 25.03588867 C21.01400594 26.62682086 22.1947357 28.2174089 23.37597656 29.80761719 C26.61609269 34.18167655 29.80897459 38.59004253 33 43 C29.5135032 46.60849208 25.92150283 49.80263372 21.9375 52.875 C20.91527344 53.67679688 19.89304688 54.47859375 18.83984375 55.3046875 C16 57 16 57 14.00756836 56.83007812 C11.4792401 55.78467911 10.61973721 54.63620141 9.0390625 52.4140625 C8.4915332 51.65689941 7.94400391 50.89973633 7.37988281 50.11962891 C6.80077148 49.29640137 6.22166016 48.47317383 5.625 47.625 C4.38333071 45.89546118 3.14112695 44.16630597 1.8984375 42.4375 C0.9408252 41.09558594 0.9408252 41.09558594 -0.03613281 39.7265625 C-1.98245766 37.02435516 -3.96348638 34.35208595 -5.9609375 31.6875 C-6.59596191 30.83849121 -7.23098633 29.98948242 -7.88525391 29.11474609 C-9.10578232 27.48513772 -10.32930252 25.85776479 -11.55615234 24.23291016 C-14.24655675 20.61569783 -16.6444163 17.36219882 -18 13 C-17.03578125 12.31292969 -16.0715625 11.62585938 -15.078125 10.91796875 C-13.80206523 10.00783788 -12.52602457 9.09768022 -11.25 8.1875 C-10.29867187 7.50977539 -10.29867187 7.50977539 -9.328125 6.81835938 C-8.709375 6.37685547 -8.090625 5.93535156 -7.453125 5.48046875 C-6.55110352 4.84117432 -6.55110352 4.84117432 -5.63085938 4.18896484 C-4.29376635 3.21416798 -3.00591346 2.17216586 -1.734375 1.11328125 C-1.16203125 0.74589844 -0.5896875 0.37851563 0 0 Z " fill="#66D8F5" transform="translate(139,104)"/>
<path d="M0 0 C2.67602258 1.78083272 3.62851665 3.6091047 5.15454102 6.43261719 C5.72188965 7.46676758 6.28923828 8.50091797 6.8737793 9.56640625 C7.76685791 11.23074707 7.76685791 11.23074707 8.67797852 12.92871094 C9.93696448 15.2276721 11.19738503 17.52584821 12.45922852 19.82324219 C13.07411133 20.94811035 13.68899414 22.07297852 14.32250977 23.23193359 C16.53453988 27.23842945 18.83561142 31.1849519 21.17797852 35.11621094 C21.95821933 36.43765262 22.73816306 37.75926976 23.51782227 39.08105469 C24.89338619 41.40966007 26.27328246 43.73548294 27.65893555 46.05810547 C29.36471674 48.9247723 31.05362397 51.8008751 32.74047852 54.67871094 C33.55379639 56.03270996 33.55379639 56.03270996 34.38354492 57.4140625 C34.8764502 58.2606543 35.36935547 59.10724609 35.87719727 59.97949219 C36.321521 60.73012939 36.76584473 61.4807666 37.22363281 62.25415039 C38.21977221 64.79097756 38.10106412 65.87638633 37.05297852 68.36621094 C34.87329102 70.10449219 34.87329102 70.10449219 32.17797852 71.67871094 C31.29368164 72.21109375 30.40938477 72.74347656 29.49829102 73.29199219 C27.05297852 74.36621094 27.05297852 74.36621094 24.05297852 73.36621094 C22.55761719 71.24682617 22.55761719 71.24682617 20.97094727 68.42480469 C20.07786865 66.85448486 20.07786865 66.85448486 19.16674805 65.25244141 C18.5310791 64.11436035 17.89541016 62.9762793 17.24047852 61.80371094 C16.57336673 60.62491061 15.90522163 59.44669451 15.23608398 58.26904297 C14.20266917 56.44987751 13.16999648 54.6303294 12.14068604 52.80883789 C8.71577869 46.74949463 5.20060759 40.74418217 1.67797852 34.74121094 C-3.62902716 25.67033983 -8.84100596 16.5516357 -13.94702148 7.36621094 C-11.69428438 4.92634551 -9.37352458 3.22961157 -6.50952148 1.55371094 C-5.36676758 0.86341797 -5.36676758 0.86341797 -4.20092773 0.15917969 C-1.94702148 -0.63378906 -1.94702148 -0.63378906 0 0 Z " fill="#F9BE6A" transform="translate(327.947021484375,345.6337890625)"/>
<path d="M0 0 C4.98770821 0.42268714 9.28723333 1.2327125 14 3 C12.89725828 10.10978214 11.23657844 16.9037321 9.203125 23.80078125 C7.69397883 28.98431467 6.35373102 34.21166581 5 39.4375 C4.74210693 40.43056152 4.48421387 41.42362305 4.21850586 42.44677734 C3.71225971 44.3968934 3.20631086 46.34708667 2.70068359 48.29736328 C-2.0212766 66.5106383 -2.0212766 66.5106383 -5 75 C-10.65394631 75.34615998 -14.03006806 74.43425238 -19 72 C-18.44652758 65.49507125 -17.21621708 59.66872337 -15.3125 53.4375 C-12.98646948 45.58476447 -10.8817791 37.70571143 -8.9375 29.75 C-7.15184534 22.47991812 -5.29487109 15.24661401 -3.1875 8.0625 C-2.9805249 7.35254883 -2.7735498 6.64259766 -2.56030273 5.91113281 C-1.13025396 1.13025396 -1.13025396 1.13025396 0 0 Z " fill="#96D13A" transform="translate(419,233)"/>
<path d="M0 0 C1.83325765 2.40230575 3.55301363 4.8157907 5.25 7.3125 C8.72810849 12.36162903 12.24148776 17.36391837 15.94140625 22.25390625 C16.90868652 23.53624146 16.90868652 23.53624146 17.89550781 24.84448242 C19.16175129 26.51598187 20.435722 28.18165882 21.71777344 29.84106445 C22.29172852 30.60249756 22.86568359 31.36393066 23.45703125 32.1484375 C23.97241455 32.82052246 24.48779785 33.49260742 25.01879883 34.18505859 C25.34259521 34.78398926 25.6663916 35.38291992 26 36 C24.61816491 40.14550527 21.69798791 41.66496185 18.25 44.0625 C17.62867188 44.50916016 17.00734375 44.95582031 16.3671875 45.41601562 C13.02542224 47.77428668 9.90986393 49.67930169 6 51 C5.45811035 50.26233398 5.45811035 50.26233398 4.90527344 49.50976562 C3.81370107 48.0244549 2.7217004 46.53945889 1.62939453 45.0546875 C0.36920634 43.34169592 -0.89022543 41.62814763 -2.14892578 39.9140625 C-5.26640179 35.67674698 -8.40104539 31.45630061 -11.6015625 27.28125 C-12.43059082 26.19553711 -12.43059082 26.19553711 -13.27636719 25.08789062 C-14.32571256 23.71739557 -15.38088203 22.35133632 -16.44238281 20.99023438 C-20 16.33290139 -20 16.33290139 -20 13 C-17.78413521 11.19886926 -15.60886347 9.59129678 -13.25 8 C-11.98419673 7.12525791 -10.71856727 6.25026424 -9.453125 5.375 C-8.85306641 4.96636719 -8.25300781 4.55773437 -7.63476562 4.13671875 C-6.28284431 3.19667311 -4.97117316 2.19903414 -3.671875 1.1875 C-2 0 -2 0 0 0 Z " fill="#AB68D4" transform="translate(182,160)"/>
<path d="M0 0 C2.42486592 1.0597787 3.26323233 2.15550716 4.76318359 4.32519531 C5.53239136 5.41695068 5.53239136 5.41695068 6.31713867 6.53076172 C6.8562085 7.31757324 7.39527832 8.10438477 7.95068359 8.91503906 C9.09901335 10.55014467 10.24878707 12.18423701 11.39990234 13.81738281 C11.98433105 14.65124512 12.56875977 15.48510742 13.17089844 16.34423828 C15.96165098 20.27732356 18.85710922 24.12927462 21.76318359 27.97753906 C22.28460938 28.66984619 22.80603516 29.36215332 23.34326172 30.07543945 C24.54423941 31.66893479 25.7472147 33.26092434 26.95068359 34.85253906 C24.90052317 39.57448473 21.64393842 41.70245576 17.57568359 44.66503906 C16.90279297 45.18001953 16.22990234 45.695 15.53662109 46.22558594 C14.88177734 46.70705078 14.22693359 47.18851563 13.55224609 47.68457031 C12.95750488 48.12518799 12.36276367 48.56580566 11.75 49.01977539 C9.95068359 49.85253906 9.95068359 49.85253906 7.90136719 49.70507812 C5.47650127 48.64529943 4.63813486 47.54957096 3.13818359 45.37988281 C2.36897583 44.28812744 2.36897583 44.28812744 1.58422852 43.17431641 C0.77562378 41.99409912 0.77562378 41.99409912 -0.04931641 40.79003906 C-1.19764617 39.15493346 -2.34741988 37.52084111 -3.49853516 35.88769531 C-4.08296387 35.05383301 -4.66739258 34.2199707 -5.26953125 33.36083984 C-8.0602838 29.42775457 -10.95574204 25.57580351 -13.86181641 21.72753906 C-14.38324219 21.03523193 -14.90466797 20.3429248 -15.44189453 19.62963867 C-16.64287223 18.03614334 -17.84584751 16.44415378 -19.04931641 14.85253906 C-16.99915599 10.13059339 -13.74257123 8.00262236 -9.67431641 5.04003906 C-9.00142578 4.52505859 -8.32853516 4.01007812 -7.63525391 3.47949219 C-6.98041016 2.99802734 -6.32556641 2.5165625 -5.65087891 2.02050781 C-5.0561377 1.57989014 -4.46139648 1.13927246 -3.84863281 0.68530273 C-2.04931641 -0.14746094 -2.04931641 -0.14746094 0 0 Z " fill="#B981DB" transform="translate(104.04931640625,55.1474609375)"/>
<path d="M0 0 C1.70738758 2.43331768 3.24580539 4.82213975 4.75 7.375 C5.38615234 8.40367187 5.38615234 8.40367187 6.03515625 9.453125 C7.11019392 11.25302521 8.0640699 13.12399851 9 15 C7.64704671 19.05885986 5.86909336 19.4879807 2.1640625 21.546875 C1.5700766 21.88116516 0.9760907 22.21545532 0.36410522 22.55987549 C-1.54418373 23.63200398 -3.45909436 24.69155251 -5.375 25.75 C-7.86450522 27.13613589 -10.35110813 28.52737566 -12.8359375 29.921875 C-13.44314636 30.26238892 -14.05035522 30.60290283 -14.67596436 30.95373535 C-24.41641385 36.19075304 -24.41641385 36.19075304 -33 43 C-34.67703806 40.06830554 -36.33979518 37.12875476 -38 34.1875 C-38.47695312 33.35412109 -38.95390625 32.52074219 -39.4453125 31.66210938 C-40.12207031 30.45844727 -40.12207031 30.45844727 -40.8125 29.23046875 C-41.23144531 28.49207764 -41.65039062 27.75368652 -42.08203125 26.99291992 C-43 25 -43 25 -43 22 C-41.26826173 20.99994361 -39.53648159 19.99995973 -37.8046875 19 C-36.7019751 18.36320312 -35.5992627 17.72640625 -34.46313477 17.0703125 C-32.06886318 15.68823225 -29.67344761 14.3081642 -27.27709961 12.9296875 C-19.74668435 8.59757301 -19.74668435 8.59757301 -12.26171875 4.1875 C-11.29613037 3.61708984 -11.29613037 3.61708984 -10.31103516 3.03515625 C-8.68382669 2.07182703 -7.06237214 1.09879678 -5.44140625 0.125 C-3 -1 -3 -1 0 0 Z " fill="#F9A42E" transform="translate(240,373)"/>
<path d="M0 0 C7.68007018 4.66827795 12.37611293 9.80551221 16.1875 17.9375 C16.620625 18.783125 17.05375 19.62875 17.5 20.5 C18.5242686 24.13149776 19.16880556 27.27337439 18.1875 30.9375 C15.63916194 33.86401522 12.59945997 35.8724959 9.375 38 C8.54162109 38.59232422 7.70824219 39.18464844 6.84960938 39.79492188 C2.33080665 42.91271428 2.33080665 42.91271428 0.1875 43.9375 C-1.2975 43.4425 -1.2975 43.4425 -2.8125 42.9375 C-2.46316406 42.18984375 -2.11382812 41.4421875 -1.75390625 40.671875 C-1.29886719 39.68703125 -0.84382813 38.7021875 -0.375 37.6875 C0.07746094 36.71296875 0.52992188 35.7384375 0.99609375 34.734375 C2.71687313 30.69477487 3.37426583 27.26246084 3.5 22.875 C3.53738281 22.01777344 3.57476562 21.16054687 3.61328125 20.27734375 C3.3917854 17.79430394 3.3917854 17.79430394 1.359375 16.12109375 C-0.84916005 14.67623981 -0.84916005 14.67623981 -3.875 15.0625 C-6.96871975 15.98403354 -7.86725925 16.46223578 -9.8125 18.9375 C-10.60048055 21.43193774 -10.60048055 21.43193774 -11 24.125 C-11.23783203 25.47658203 -11.23783203 25.47658203 -11.48046875 26.85546875 C-11.64482422 27.88607422 -11.64482422 27.88607422 -11.8125 28.9375 C-16.0781416 24.90883849 -19.56680017 20.51627256 -23.0625 15.8125 C-23.60390625 15.09707031 -24.1453125 14.38164063 -24.703125 13.64453125 C-25.4765625 12.61005859 -25.4765625 12.61005859 -26.265625 11.5546875 C-26.96413574 10.62052002 -26.96413574 10.62052002 -27.67675781 9.66748047 C-28.8125 7.9375 -28.8125 7.9375 -29.8125 4.9375 C-20.2337281 -0.80976314 -11.07971101 -3.08778831 0 0 Z " fill="#1EA6E9" transform="translate(155.8125,53.0625)"/>
<path d="M0 0 C9.13511233 3.03087448 14.69225764 9.78654728 19.51953125 17.8359375 C22.20104297 24.20452784 22.9878005 31.22173626 20.3515625 37.7109375 C17.62594227 42.86789506 14.65216784 47.70330091 10.51953125 51.8359375 C8.37109375 52.484375 8.37109375 52.484375 6.51953125 52.8359375 C6.14143311 52.31161133 5.76333496 51.78728516 5.3737793 51.24707031 C3.65191773 48.85974608 1.92948016 46.472838 0.20703125 44.0859375 C-0.38787109 43.2609375 -0.98277344 42.4359375 -1.59570312 41.5859375 C-2.46098633 40.38710937 -2.46098633 40.38710937 -3.34375 39.1640625 C-3.87266846 38.4309082 -4.40158691 37.69775391 -4.9465332 36.94238281 C-5.9942928 35.50356858 -7.07272779 34.08672597 -8.17651367 32.69042969 C-9.48046875 30.8359375 -9.48046875 30.8359375 -9.48046875 28.8359375 C-8.57683594 28.87074219 -7.67320312 28.90554687 -6.7421875 28.94140625 C-5.56269531 28.96847656 -4.38320312 28.99554688 -3.16796875 29.0234375 C-1.99621094 29.05824219 -0.82445312 29.09304687 0.3828125 29.12890625 C3.47298876 29.1004514 3.47298876 29.1004514 5.41796875 27.51171875 C7.11889606 24.92413785 6.83358335 22.85083764 6.51953125 19.8359375 C4.05747862 16.14285856 2.74883993 15.89703635 -1.48046875 14.8359375 C-4.74084521 14.5594459 -4.74084521 14.5594459 -8.04296875 14.6484375 C-9.13738281 14.65488281 -10.23179687 14.66132813 -11.359375 14.66796875 C-14.1740014 14.81944426 -16.74030105 15.19809586 -19.48046875 15.8359375 C-19.81046875 14.8459375 -20.14046875 13.8559375 -20.48046875 12.8359375 C-19.51625 12.14886719 -18.55203125 11.46179688 -17.55859375 10.75390625 C-16.28253398 9.84377538 -15.00649332 8.93361772 -13.73046875 8.0234375 C-12.77914062 7.34571289 -12.77914062 7.34571289 -11.80859375 6.65429688 C-11.18984375 6.21279297 -10.57109375 5.77128906 -9.93359375 5.31640625 C-9.32966797 4.89020996 -8.72574219 4.46401367 -8.10351562 4.02490234 C-6.34838336 2.77661919 -6.34838336 2.77661919 -4.33984375 0.94921875 C-2.48046875 -0.1640625 -2.48046875 -0.1640625 0 0 Z " fill="#1EA6E8" transform="translate(203.48046875,122.1640625)"/>
<path d="M0 0 C1.14501953 1.56054688 1.14501953 1.56054688 2.3828125 3.71875 C2.82753906 4.48574219 3.27226562 5.25273437 3.73046875 6.04296875 C4.19066406 6.85378906 4.65085937 7.66460937 5.125 8.5 C5.59292969 9.31082031 6.06085938 10.12164062 6.54296875 10.95703125 C7.70201772 12.96762641 8.85396471 14.98196761 10 17 C7.45653352 19.86384753 4.57845158 21.54295854 1.265625 23.43359375 C0.13382812 24.08263672 -0.99796875 24.73167969 -2.1640625 25.40039062 C-3.3593114 26.07953902 -4.55462439 26.75857465 -5.75 27.4375 C-6.92993901 28.11219055 -8.10962907 28.78731665 -9.2890625 29.46289062 C-11.53785325 30.74918874 -13.78842804 32.03237432 -16.04101562 33.31201172 C-18.44003929 34.68056367 -20.82275832 36.07218663 -23.203125 37.47265625 C-26 39 -26 39 -28 39 C-28.33 39.66 -28.66 40.32 -29 41 C-30.48505869 38.41989804 -31.96317311 35.83622441 -33.4375 33.25 C-33.85837891 32.52039063 -34.27925781 31.79078125 -34.71289062 31.0390625 C-35.31713867 29.97558594 -35.31713867 29.97558594 -35.93359375 28.890625 C-36.30540771 28.24125977 -36.67722168 27.59189453 -37.06030273 26.92285156 C-38.0187032 24.96172866 -38.5503043 23.13035565 -39 21 C-38.30551758 20.61255615 -37.61103516 20.2251123 -36.89550781 19.82592773 C-33.67967817 18.03096541 -30.46483649 16.23424044 -27.25 14.4375 C-26.15816406 13.82841797 -25.06632812 13.21933594 -23.94140625 12.59179688 C-17.35513478 8.90894094 -10.82543708 5.15223494 -4.35449219 1.26977539 C-2 0 -2 0 0 0 Z " fill="#F73980" transform="translate(291,342)"/>
<path d="M0 0 C8.44579939 1.88051002 16.85093908 3.92208055 25.25 6 C26.77560547 6.37342529 26.77560547 6.37342529 28.33203125 6.75439453 C34.33044469 8.24715485 40.16256695 9.96537603 46 12 C45.3808361 14.584859 44.75492318 17.16776172 44.125 19.75 C43.95097656 20.47960937 43.77695312 21.20921875 43.59765625 21.9609375 C43.42363281 22.66992188 43.24960937 23.37890625 43.0703125 24.109375 C42.91320801 24.75874023 42.75610352 25.40810547 42.59423828 26.07714844 C41.94101309 28.19087138 41.03624898 30.04896712 40 32 C38.81446533 31.66677734 37.62893066 31.33355469 36.4074707 30.99023438 C32.00172454 29.75373607 27.59364416 28.5257468 23.18481445 27.30029297 C21.27824369 26.76907844 19.37231071 26.23556924 17.46704102 25.69970703 C14.72577375 24.92915003 11.98230661 24.16691833 9.23828125 23.40625 C8.38913651 23.16563843 7.53999176 22.92502686 6.66511536 22.67712402 C2.69004832 21.58346484 -0.8330567 20.67405244 -5 21 C-4.35451147 18.24991865 -3.70862234 15.49993244 -3.0625 12.75 C-2.88009766 11.97269531 -2.69769531 11.19539062 -2.50976562 10.39453125 C-2.33251953 9.64042969 -2.15527344 8.88632813 -1.97265625 8.109375 C-1.72914429 7.07248535 -1.72914429 7.07248535 -1.48071289 6.01464844 C-1.0014338 4.00600899 -0.50453398 2.00243058 0 0 Z " fill="#80B431" transform="translate(308,182)"/>
<path d="M0 0 C0.4031543 0.72590332 0.80630859 1.45180664 1.22167969 2.19970703 C2.73301645 4.91811661 4.2466192 7.63524856 5.76171875 10.3515625 C6.73350016 12.09539159 7.70271016 13.84065285 8.671875 15.5859375 C9.290625 16.69453125 9.909375 17.803125 10.546875 18.9453125 C11.11245117 19.96125488 11.67802734 20.97719727 12.26074219 22.02392578 C13.98724516 25.09248728 13.98724516 25.09248728 16.27832031 28.12841797 C18 31 18 31 17.96606445 33.2253418 C16.77174331 35.41930702 15.71067909 36.16609835 13.54296875 37.39453125 C12.84236328 37.79220703 12.14175781 38.18988281 11.41992188 38.59960938 C10.31487305 39.19999023 10.31487305 39.19999023 9.1875 39.8125 C8.46240234 40.23208984 7.73730469 40.65167969 6.99023438 41.08398438 C1.64715147 44.05127744 1.64715147 44.05127744 -1.09521484 43.83398438 C-3.54624639 42.76083342 -4.09567542 41.73909215 -5.33203125 39.38671875 C-5.73510498 38.63849854 -6.13817871 37.89027832 -6.5534668 37.11938477 C-6.96894775 36.31686279 -7.38442871 35.51434082 -7.8125 34.6875 C-8.68870953 33.04352675 -9.56631972 31.40029929 -10.4453125 29.7578125 C-10.87489258 28.94860352 -11.30447266 28.13939453 -11.74707031 27.30566406 C-13.97702864 23.20205407 -16.44856635 19.24846349 -18.91796875 15.28515625 C-20 13 -20 13 -19 10 C-17.35766602 8.74145508 -17.35766602 8.74145508 -15.25390625 7.51953125 C-14.49916016 7.07802734 -13.74441406 6.63652344 -12.96679688 6.18164062 C-11.77666992 5.50391602 -11.77666992 5.50391602 -10.5625 4.8125 C-9.77294922 4.34908203 -8.98339844 3.88566406 -8.16992188 3.40820312 C-2.28211294 0 -2.28211294 0 0 0 Z " fill="#F75892" transform="translate(232,261)"/>
<path d="M0 0 C7.0492582 1.53628255 14.05946847 3.20312476 21.0625 4.9375 C22.09955078 5.18951172 23.13660156 5.44152344 24.20507812 5.70117188 C29.97959282 7.1329 35.47916417 8.77973589 41 11 C40.05542371 17.76761128 39.06997835 23.8600433 36 30 C27.17836545 28.40790627 18.54049009 26.14187947 9.875 23.875 C8.42714982 23.49844219 6.97923359 23.12213823 5.53125 22.74609375 C2.0200679 21.83365127 -1.49021083 20.91778787 -5 20 C-4.35587386 17.22875964 -3.70977252 14.45800555 -3.0625 11.6875 C-2.88009766 10.90181641 -2.69769531 10.11613281 -2.50976562 9.30664062 C-2.33251953 8.54931641 -2.15527344 7.79199219 -1.97265625 7.01171875 C-1.81031494 6.31522217 -1.64797363 5.61872559 -1.48071289 4.90112305 C-1.06234435 3.2465594 -0.53968631 1.61905892 0 0 Z " fill="#F73980" transform="translate(368,198)"/>
<path d="M0 0 C2.25929475 1.17076944 3.18608095 2.38704642 4.57421875 4.5078125 C5.0021875 5.14847656 5.43015625 5.78914062 5.87109375 6.44921875 C6.34289062 7.18978516 6.34289062 7.18978516 6.82421875 7.9453125 C3.04937129 11.91429497 -0.958503 15.19948567 -5.36328125 18.4453125 C-6.4001709 19.21645386 -6.4001709 19.21645386 -7.45800781 20.00317383 C-13.50066647 24.48244664 -19.59415069 28.89236813 -25.7121582 33.26806641 C-29.13645152 35.72183809 -32.5301783 38.19380291 -35.83984375 40.80078125 C-36.38866211 41.22979736 -36.93748047 41.65881348 -37.50292969 42.10083008 C-38.94116179 43.23394828 -40.36758613 44.38200989 -41.79296875 45.53125 C-44.17578125 46.9453125 -44.17578125 46.9453125 -46.32421875 46.89453125 C-48.60608612 45.72471317 -49.52723975 44.51947312 -50.92578125 42.3828125 C-51.56773438 41.42181641 -51.56773438 41.42181641 -52.22265625 40.44140625 C-52.5371875 39.94769531 -52.85171875 39.45398438 -53.17578125 38.9453125 C-51.86050916 35.90548303 -50.6685466 34.27361578 -47.9296875 32.421875 C-47.26678711 31.96530518 -46.60388672 31.50873535 -45.92089844 31.03833008 C-45.20063477 30.55388428 -44.48037109 30.06943848 -43.73828125 29.5703125 C-42.19136679 28.50585321 -40.64584585 27.43936659 -39.1015625 26.37109375 C-38.29412598 25.81373535 -37.48668945 25.25637695 -36.65478516 24.68212891 C-32.52054787 21.78563845 -28.47694882 18.76880438 -24.42578125 15.7578125 C-22.07359587 14.02205039 -19.71959752 12.28878363 -17.36474609 10.55664062 C-15.95453191 9.51856193 -14.54587756 8.4783592 -13.13916016 7.43554688 C-11.34800593 6.11310163 -9.54572463 4.807862 -7.73828125 3.5078125 C-6.74957031 2.78722656 -5.76085937 2.06664062 -4.7421875 1.32421875 C-2.17578125 -0.0546875 -2.17578125 -0.0546875 0 0 Z " fill="#AB68D4" transform="translate(130.17578125,187.0546875)"/>
<path d="M0 0 C1.64548828 0.41572266 1.64548828 0.41572266 3.32421875 0.83984375 C4.77862993 1.20579237 6.2330579 1.57167427 7.6875 1.9375 C8.40873047 2.11990234 9.12996094 2.30230469 9.87304688 2.49023438 C13.56827248 3.41825907 17.25345469 4.29798461 21 5 C19.34526216 12.74718172 17.37944388 20.39916883 15.375 28.0625 C14.88773437 29.93325195 14.88773437 29.93325195 14.390625 31.84179688 C13.5951787 34.89490695 12.79826879 37.94762691 12 41 C7.28562873 40.24932254 2.72583407 39.19916283 -1.875 37.9375 C-2.56335938 37.75123047 -3.25171875 37.56496094 -3.9609375 37.37304688 C-5.64132514 36.91794189 -7.32076322 36.45933322 -9 36 C-8.4248166 30.30568437 -7.32509051 25.14323929 -5.625 19.6875 C-5.1749272 18.20338373 -4.72570969 16.71900782 -4.27734375 15.234375 C-4.05933105 14.51701172 -3.84131836 13.79964844 -3.61669922 13.06054688 C-2.32125978 8.73215857 -1.15994147 4.36628375 0 0 Z " fill="#F65791" transform="translate(403,108)"/>
<path d="M0 0 C5.63293398 5.63293398 5.63293398 5.63293398 7.89453125 9.5390625 C8.37470703 10.36664063 8.85488281 11.19421875 9.34960938 12.046875 C9.83236328 12.89765625 10.31511719 13.7484375 10.8125 14.625 C11.56563477 15.91277344 11.56563477 15.91277344 12.33398438 17.2265625 C16 23.61091624 16 23.61091624 16 27 C13.17961442 29.31932056 9.91406768 31.00085312 6.75 32.8125 C5.87730469 33.34037109 5.00460937 33.86824219 4.10546875 34.41210938 C3.26113281 34.90130859 2.41679687 35.39050781 1.546875 35.89453125 C0.77182617 36.34675049 -0.00322266 36.79896973 -0.80175781 37.26489258 C-3 38 -3 38 -5.09790039 37.42211914 C-7.46210043 35.65450712 -8.53205744 33.92242507 -9.98046875 31.3515625 C-10.50447266 30.42859375 -11.02847656 29.505625 -11.56835938 28.5546875 C-12.10267578 27.58789062 -12.63699219 26.62109375 -13.1875 25.625 C-13.73341797 24.6659375 -14.27933594 23.706875 -14.84179688 22.71875 C-17.07382928 18.7470046 -18.88787006 15.44851977 -20 11 C-13.4 7.37 -6.8 3.74 0 0 Z " fill="#F8BE6B" transform="translate(310,277)"/>
<path d="M0 0 C0.76054687 0.00257813 1.52109375 0.00515625 2.3046875 0.0078125 C3.42230469 0.00394531 3.42230469 0.00394531 4.5625 0 C7.80672868 0.1646325 10.9708624 0.6385436 14.1796875 1.1328125 C14.20908081 5.57029824 14.22661713 10.00775843 14.2421875 14.4453125 C14.25056641 15.68861328 14.25894531 16.93191406 14.26757812 18.21289062 C14.31008963 34.40977479 14.31008963 34.40977479 13.1796875 40.1328125 C11.1796875 42.1328125 11.1796875 42.1328125 9.2265625 42.36328125 C8.46859375 42.34910156 7.710625 42.33492188 6.9296875 42.3203125 C5.80820312 42.31064453 5.80820312 42.31064453 4.6640625 42.30078125 C1.79229932 42.10662116 -0.98512247 41.62067347 -3.8203125 41.1328125 C-3.84976289 36.71616025 -3.86726066 32.29953383 -3.8828125 27.8828125 C-3.89119141 26.64789063 -3.89957031 25.41296875 -3.90820312 24.140625 C-3.92841452 16.46029566 -3.90644007 8.75174001 -2.8203125 1.1328125 C-1.8203125 0.1328125 -1.8203125 0.1328125 0 0 Z " fill="#BA81DC" transform="translate(443.8203125,305.8671875)"/>
<path d="M0 0 C2.58076726 0.99852188 3.82338119 2.25255514 5.70556641 4.27587891 C6.37467041 4.9891333 7.04377441 5.7023877 7.7331543 6.43725586 C8.43045654 7.19997803 9.12775879 7.9627002 9.84619141 8.74853516 C10.55831787 9.51963623 11.27044434 10.2907373 12.00415039 11.08520508 C14.04926241 13.31459934 16.07732057 15.55787303 18.09619141 17.81103516 C18.6048877 18.37790039 19.11358398 18.94476563 19.63769531 19.52880859 C26.13499851 26.86857703 26.13499851 26.86857703 26.01416016 29.80322266 C24.83189326 32.38911705 23.32769981 34.08615715 21.34619141 36.12353516 C20.67072266 36.84154297 19.99525391 37.55955078 19.29931641 38.29931641 C17.09619141 39.81103516 17.09619141 39.81103516 14.76025391 39.98291016 C10.64509152 38.17272142 8.16718969 35.07563549 5.22119141 31.74853516 C4.29246216 30.72505981 4.29246216 30.72505981 3.3449707 29.6809082 C1.58382898 27.7342611 -0.1620067 25.77498143 -1.90380859 23.81103516 C-2.68369141 22.94220703 -3.46357422 22.07337891 -4.26708984 21.17822266 C-6.95912253 18.14608305 -9.49404258 15.07381569 -11.90380859 11.81103516 C-10.43755003 8.46282618 -8.56722413 6.11837156 -6.02880859 3.49853516 C-5.01173828 2.42152344 -5.01173828 2.42152344 -3.97412109 1.32275391 C-1.90380859 -0.18896484 -1.90380859 -0.18896484 0 0 Z " fill="#F6BC6A" transform="translate(89.90380859375,254.18896484375)"/>
<path d="M0 0 C8.21652766 0.02185973 16.35554453 0.50015468 24.54589844 1.1328125 C26.46789062 1.27589844 26.46789062 1.27589844 28.42871094 1.421875 C31.55142549 1.6549134 34.67377859 1.89195959 37.79589844 2.1328125 C37.82274523 4.77871264 37.842662 7.42434346 37.85839844 10.0703125 C37.86677734 10.82505859 37.87515625 11.57980469 37.88378906 12.35742188 C37.89242285 14.28275563 37.84814177 16.20816831 37.79589844 18.1328125 C36.03693125 19.89177969 33.71708621 19.29855382 31.37182617 19.32250977 C30.22049194 19.32142212 30.22049194 19.32142212 29.04589844 19.3203125 C28.25836182 19.32023193 27.4708252 19.32015137 26.65942383 19.32006836 C20.1525281 19.25970755 13.70990243 18.80896404 7.23339844 18.1953125 C5.85039551 18.06515747 5.85039551 18.06515747 4.43945312 17.93237305 C-2.07040589 17.26650817 -2.07040589 17.26650817 -3.20410156 16.1328125 C-3.30385188 13.62145146 -3.34292339 11.14377835 -3.32910156 8.6328125 C-3.33296875 7.93027344 -3.33683594 7.22773437 -3.34082031 6.50390625 C-3.32867517 0.20057591 -3.32867517 0.20057591 0 0 Z " fill="#F9BF6B" transform="translate(290.2041015625,30.8671875)"/>
<path d="M0 0 C3.16610336 3.16610336 5.62422672 5.62479067 8.12109375 9.14453125 C8.66443359 9.90443359 9.20777344 10.66433594 9.76757812 11.44726562 C10.59418945 12.61805664 10.59418945 12.61805664 11.4375 13.8125 C12.53963295 15.36119801 13.64249334 16.90937861 14.74609375 18.45703125 C15.28089355 19.21064941 15.81569336 19.96426758 16.36669922 20.74072266 C18.48498787 23.67086364 20.69105934 26.5296548 22.91821289 29.37768555 C24 31 24 31 24 33 C21.86229382 34.62677091 19.7324466 36.13979644 17.5 37.625 C16.87996094 38.04523438 16.25992188 38.46546875 15.62109375 38.8984375 C14.08482736 39.93837167 12.54292476 40.96997056 11 42 C7.53421391 38.66167715 4.54170802 35.24670449 1.6875 31.375 C0.91664062 30.32957031 0.14578125 29.28414062 -0.6484375 28.20703125 C-1.42445312 27.14871094 -2.20046875 26.09039062 -3 25 C-3.75539063 23.99324219 -4.51078125 22.98648438 -5.2890625 21.94921875 C-5.99804688 20.99660156 -6.70703125 20.04398438 -7.4375 19.0625 C-8.07558594 18.20785156 -8.71367188 17.35320312 -9.37109375 16.47265625 C-11 14 -11 14 -13 9 C-8.71 6.03 -4.42 3.06 0 0 Z " fill="#9459B8" transform="translate(81,90)"/>
<path d="M0 0 C2.04663122 0.45095264 4.0927581 0.90428094 6.13671875 1.3671875 C8.23877592 1.83176221 10.34651384 2.27082425 12.45703125 2.6953125 C13.62621094 2.94023437 14.79539062 3.18515625 16 3.4375 C17.11375 3.66308594 18.2275 3.88867188 19.375 4.12109375 C20.24125 4.41113281 21.1075 4.70117188 22 5 C23.16491439 8.49474316 22.77051536 9.74516956 21.85546875 13.25390625 C21.59056641 14.27291016 21.32566406 15.29191406 21.05273438 16.34179688 C20.76720703 17.40462891 20.48167969 18.46746094 20.1875 19.5625 C19.91357422 20.62919922 19.63964844 21.69589844 19.35742188 22.79492188 C17.2589084 30.7410916 17.2589084 30.7410916 15 33 C8.18520563 33.28006004 0.25387722 31.65591156 -6 29 C-7.18105773 25.45682681 -6.73531264 24.09985073 -5.8203125 20.52734375 C-5.55089844 19.46322266 -5.28148437 18.39910156 -5.00390625 17.30273438 C-4.71386719 16.19220703 -4.42382812 15.08167969 -4.125 13.9375 C-3.84269531 12.82310547 -3.56039063 11.70871094 -3.26953125 10.56054688 C-1.16137422 2.32274845 -1.16137422 2.32274845 0 0 Z " fill="#B9E671" transform="translate(445,173)"/>
<path d="M0 0 C6.30452205 4.45800931 12.3173541 9.49013202 14.80078125 16.98046875 C9.6321079 20.6020562 4.70450232 23.71946919 -1.19921875 25.98046875 C-1.68390625 25.33980469 -2.16859375 24.69914062 -2.66796875 24.0390625 C-11.56415346 12.55956262 -20.70942374 4.93209366 -35.19921875 1.98046875 C-24.99599852 -6.59023625 -11.36006762 -6.47170293 0 0 Z " fill="#DC1056" transform="translate(300.19921875,240.01953125)"/>
<path d="M0 0 C2.67174717 1.00954973 3.48070709 2.20719032 5.10327148 4.53979492 C5.64983398 5.31258789 6.19639648 6.08538086 6.75952148 6.8815918 C7.31897461 7.69563477 7.87842773 8.50967773 8.45483398 9.34838867 C9.56611114 10.93351648 10.67808633 12.51815515 11.79077148 14.10229492 C12.33056641 14.88233887 12.87036133 15.66238281 13.42651367 16.46606445 C15.53703478 19.42740106 17.79724506 22.25919171 20.09790039 25.07470703 C20.42193848 25.63939697 20.74597656 26.20408691 21.07983398 26.78588867 C19.7675759 30.72266293 17.88369459 31.61306687 14.51733398 33.97338867 C12.99946289 35.0465332 12.99946289 35.0465332 11.45092773 36.14135742 C10.27723633 36.95540039 10.27723633 36.95540039 9.07983398 37.78588867 C5.62544812 36.35536984 3.97497769 34.69632439 1.80249023 31.68041992 C1.20629883 30.8612207 0.61010742 30.04202148 -0.00415039 29.19799805 C-0.61581055 28.34012695 -1.2274707 27.48225586 -1.85766602 26.59838867 C-2.46545898 25.75985352 -3.07325195 24.92131836 -3.69946289 24.05737305 C-5.44883746 21.63995252 -7.18662514 19.21468088 -8.92016602 16.78588867 C-9.43337402 16.06836426 -9.94658203 15.35083984 -10.4753418 14.61157227 C-11.62476774 13.00383348 -12.77266551 11.39500228 -13.92016602 9.78588867 C-11.22308411 6.92534725 -8.47643102 4.31045571 -5.35766602 1.91088867 C-4.79950195 1.4803418 -4.24133789 1.04979492 -3.66625977 0.60620117 C-1.92016602 -0.21411133 -1.92016602 -0.21411133 0 0 Z " fill="#1EA7EA" transform="translate(113.920166015625,135.214111328125)"/>
<path d="M0 0 C3.4285785 2.02008139 6.20847086 4.41694171 8 8 C8.60110663 12.58819366 9.04707002 17.09473018 6.765625 21.24609375 C3.82817661 24.74340235 1.66661253 26.69016502 -3.05078125 27.23828125 C-8.54775239 27.41866545 -11.7545588 26.84111347 -16 23 C-19.05146436 18.52451893 -19.95053785 14.29132736 -19 9 C-14.87759959 0.90788068 -8.81531031 -1.74112661 0 0 Z " fill="#23CCF3" transform="translate(94,357)"/>
<path d="M0 0 C3.7647859 2.45148849 5.2764566 4.51686981 6.6875 8.75 C7.19099613 12.52622094 7.54633508 16.17823232 5.67578125 19.6015625 C3.0330471 22.82363477 0.41746284 25.49199926 -3.80078125 26.12109375 C-12.36852358 26.32254827 -12.36852358 26.32254827 -15.875 23.5625 C-19.72786653 19.11688478 -20.79762134 15.70345401 -20.62890625 9.7421875 C-19.93239891 5.35677091 -17.36334575 2.6257048 -14.0625 -0.125 C-9.03709361 -2.18084807 -4.94013119 -1.86420045 0 0 Z " fill="#23CDF4" transform="translate(309.3125,448.25)"/>
<path d="M0 0 C11.24069879 3.70096563 16.50938116 7.38369772 22 18 C25.35433483 26.08089754 24.5895173 35.54376799 23 44 C21.47734784 43.73958665 19.95694316 43.46602684 18.4375 43.1875 C17.59058594 43.03667969 16.74367188 42.88585937 15.87109375 42.73046875 C12.36375141 41.83812451 9.29787322 40.48791561 6 39 C6.01571045 38.38592285 6.0314209 37.7718457 6.04760742 37.13916016 C6.11076194 34.30120411 6.14924177 31.46339667 6.1875 28.625 C6.21263672 27.65949219 6.23777344 26.69398438 6.26367188 25.69921875 C6.35188858 16.93635923 4.85868644 9.40371267 0 2 C0 1.34 0 0.68 0 0 Z " fill="#DA0F56" transform="translate(462,124)"/>
<path d="M0 0 C3.88701516 1.29567172 4.81212435 3.07803051 7.1875 6.375 C7.90292969 7.35210937 8.61835938 8.32921875 9.35546875 9.3359375 C11 12 11 12 11 15 C8.90929869 16.72317169 6.86206942 18.23967677 4.625 19.75 C3.99319824 20.18812012 3.36139648 20.62624023 2.71044922 21.07763672 C1.42568188 21.96764132 0.1380771 22.85356398 -1.15234375 23.73535156 C-3.74300876 25.50856044 -6.30799657 27.31777057 -8.875 29.125 C-10.24949721 30.08405432 -11.62427943 31.04270136 -13 32 C-15.86054142 29.30291809 -18.47543296 26.55626501 -20.875 23.4375 C-21.30554688 22.87933594 -21.73609375 22.32117188 -22.1796875 21.74609375 C-23 20 -23 20 -23.04296875 18.08984375 C-21.39059167 14.77890092 -18.43456063 13.12778605 -15.4375 11.125 C-14.15813926 10.24713472 -12.87948954 9.36823229 -11.6015625 8.48828125 C-10.6719873 7.8533374 -10.6719873 7.8533374 -9.72363281 7.20556641 C-6.89357751 5.22613113 -4.21684802 3.05643152 -1.55078125 0.86328125 C-0.78314453 0.43595703 -0.78314453 0.43595703 0 0 Z " fill="#23CCF2" transform="translate(187,92)"/>
<path d="M0 0 C7.84775498 4.28560134 12.8110624 17.18182647 16.08691406 25.13964844 C16.08691406 26.12964844 16.08691406 27.11964844 16.08691406 28.13964844 C13.46191406 28.95214844 13.46191406 28.95214844 10.08691406 29.13964844 C7.27441406 26.95214844 7.27441406 26.95214844 5.80957031 25.55371094 C2.66284352 22.9706835 -1.15840165 21.63317841 -4.91308594 20.13964844 C-4.58308594 19.47964844 -4.25308594 18.81964844 -3.91308594 18.13964844 C-11.418347 14.0923087 -18.58019345 11.00962825 -26.91308594 9.13964844 C-24.77255536 6.79844312 -22.76643555 5.38728253 -19.91308594 4.01464844 C-19.23246094 3.68207031 -18.55183594 3.34949219 -17.85058594 3.00683594 C-12.26441554 0.50657419 -6.09237246 -1.40064416 0 0 Z " fill="#DB1056" transform="translate(200.9130859375,285.8603515625)"/>
<path d="M0 0 C1.83180396 2.21355309 3.51964604 4.41824301 5.1875 6.75 C5.66380859 7.38421875 6.14011719 8.0184375 6.63085938 8.671875 C7.07623047 9.290625 7.52160156 9.909375 7.98046875 10.546875 C8.59764771 11.39523926 8.59764771 11.39523926 9.22729492 12.26074219 C10 14 10 14 9.85107422 16.02734375 C8.78065412 18.50840928 7.58358173 19.4355156 5.40234375 21.015625 C4.32436523 21.80839844 4.32436523 21.80839844 3.22460938 22.6171875 C2.46986328 23.15601563 1.71511719 23.69484375 0.9375 24.25 C0.17888672 24.80429688 -0.57972656 25.35859375 -1.36132812 25.9296875 C-3.23421866 27.29607305 -5.11369202 28.65222962 -7 30 C-11.05391572 28.18300377 -13.17515493 25.58928291 -15.75 22.0625 C-16.16121094 21.52431641 -16.57242188 20.98613281 -16.99609375 20.43164062 C-20 16.38484998 -20 16.38484998 -20 13 C-17.78413521 11.19886926 -15.60886347 9.59129678 -13.25 8 C-11.98419673 7.12525791 -10.71856727 6.25026424 -9.453125 5.375 C-8.85306641 4.96636719 -8.25300781 4.55773437 -7.63476562 4.13671875 C-6.28284431 3.19667311 -4.97117316 2.19903414 -3.671875 1.1875 C-2 0 -2 0 0 0 Z " fill="#B880DB" transform="translate(182,160)"/>
<path d="M0 0 C8.60539034 1.38796618 17.54063388 4.82911635 23 12 C23.89250235 18.25548522 21.7995592 24.00787139 20 29.9375 C19.57074219 31.3925293 19.57074219 31.3925293 19.1328125 32.87695312 C18.43025583 35.25393652 17.71915599 37.62799658 17 40 C14.525 40.495 14.525 40.495 12 41 C11.79503906 39.95199219 11.59007812 38.90398437 11.37890625 37.82421875 C11.10687314 36.44529231 10.83473209 35.06638717 10.5625 33.6875 C10.42779297 32.99720703 10.29308594 32.30691406 10.15429688 31.59570312 C9.57225668 28.65710993 8.94847772 25.84543315 8 23 C7.87625 21.948125 7.7525 20.89625 7.625 19.8125 C6.44375487 12.60690468 3.33605764 6.44204234 0 0 Z " fill="#DC1057" transform="translate(363,98)"/>
<path d="M0 0 C5.15177264 5.6669499 6.59826895 11.79119775 6.44921875 19.3125 C5.21640253 26.68795704 0.22239377 33.77760623 -5 39 C-6.98 39.495 -6.98 39.495 -9 40 C-11.64 36.37 -14.28 32.74 -17 29 C-16.319375 28.360625 -15.63875 27.72125 -14.9375 27.0625 C-7.30326098 19.38488463 -0.91761374 11.01136486 0 0 Z " fill="#178EC9" transform="translate(219,135)"/>
<path d="M0 0 C4.62068966 5.77586207 4.62068966 5.77586207 6.25 9.3125 C6.75273437 10.35857422 6.75273437 10.35857422 7.265625 11.42578125 C8.31855774 15.11664656 9.10037283 18.28503225 8 22 C5.44076562 24.91795235 2.4129716 26.93432843 -0.8125 29.0625 C-1.64587891 29.65482422 -2.47925781 30.24714844 -3.33789062 30.85742188 C-7.85669335 33.97521428 -7.85669335 33.97521428 -10 35 C-10.99 34.67 -11.98 34.34 -13 34 C-12.66226563 33.33355469 -12.32453125 32.66710937 -11.9765625 31.98046875 C-8.77926093 25.37332822 -6.9427054 19.27430886 -6 12 C-5.34 13.32 -4.68 14.64 -4 16 C-2.68 10.72 -1.36 5.44 0 0 Z " fill="#178CC6" transform="translate(166,62)"/>
<path d="M0 0 C0.33 0 0.66 0 1 0 C1.33 3.96 1.66 7.92 2 12 C6.95 12.33 11.9 12.66 17 13 C17 11.35 17 9.7 17 8 C17.33 8 17.66 8 18 8 C17.89037184 11.1257396 17.75968759 14.25024781 17.625 17.375 C17.57859375 18.70917969 17.57859375 18.70917969 17.53125 20.0703125 C17.49257813 20.92109375 17.45390625 21.771875 17.4140625 22.6484375 C17.3826416 23.43395996 17.3512207 24.21948242 17.31884766 25.02880859 C17 27 17 27 15 29 C13.046875 29.23046875 13.046875 29.23046875 10.75 29.1875 C9.62851562 29.17783203 9.62851562 29.17783203 8.484375 29.16796875 C5.63608097 28.97539541 2.81595397 28.46932566 0 28 C0 18.76 0 9.52 0 0 Z " fill="#A565CD" transform="translate(440,319)"/>
<path d="M0 0 C5.28 0.33 10.56 0.66 16 1 C16.020625 3.619375 16.04125 6.23875 16.0625 8.9375 C16.071604 9.7637085 16.08070801 10.58991699 16.09008789 11.44116211 C16.09723945 13.29433759 16.0502852 15.14749308 16 17 C15 18 15 18 13.23413086 18.11352539 C12.48526611 18.10828857 11.73640137 18.10305176 10.96484375 18.09765625 C10.15595703 18.09443359 9.34707031 18.09121094 8.51367188 18.08789062 C7.66353516 18.07951172 6.81339844 18.07113281 5.9375 18.0625 C5.08349609 18.05798828 4.22949219 18.05347656 3.34960938 18.04882812 C1.23304337 18.03700373 -0.88348685 18.01906769 -3 18 C-2.01 17.67 -1.02 17.34 0 17 C0 11.39 0 5.78 0 0 Z " fill="#F6A22F" transform="translate(312,32)"/>
<path d="M0 0 C1.69393215 1.64553409 3.35732623 3.30419392 5 5 C5.48855469 5.50402344 5.97710937 6.00804687 6.48046875 6.52734375 C7.875 8.0625 7.875 8.0625 10 11 C9.74149653 14.72549112 7.78199076 16.70911853 5.25 19.3125 C4.57453125 20.03050781 3.8990625 20.74851562 3.203125 21.48828125 C1 23 1 23 -1.49609375 23.015625 C-4.67579039 21.72588845 -6.12828241 20.06596524 -8.3125 17.4375 C-9.00988281 16.61121094 -9.70726563 15.78492188 -10.42578125 14.93359375 C-10.94527344 14.29550781 -11.46476562 13.65742188 -12 13 C-9.20143882 9.19395679 -6.13069568 6.28808065 -2.48828125 3.33203125 C-0.87117455 2.04920055 -0.87117455 2.04920055 0 0 Z " fill="#F6A22E" transform="translate(106,271)"/>
<path d="M0 0 C5.60929268 0.38029103 8.97300524 0.73612319 13 5 C15.5452886 9.24214766 15.84742572 14.18662194 15 19 C13.0453275 22.54848238 10.36109525 24.75926983 7 27 C4.30078125 27.1953125 4.30078125 27.1953125 1.3125 27.125 C-0.17830078 27.09792969 -0.17830078 27.09792969 -1.69921875 27.0703125 C-2.45847656 27.04710937 -3.21773438 27.02390625 -4 27 C-4 26.67 -4 26.34 -4 26 C-3.236875 25.938125 -2.47375 25.87625 -1.6875 25.8125 C1.14808264 25.2416209 1.14808264 25.2416209 2.640625 22.84765625 C5.06140488 17.77653978 4.64023365 12.49253075 4 7 C2.95164561 4.20892661 1.79655233 2.41411719 0 0 Z " fill="#1EA6E8" transform="translate(301,447)"/>
<path d="M0 0 C3.43462183 -0.42056594 5.99485082 -0.63981991 8.98828125 1.265625 C14.76306962 6.19153144 14.76306962 6.19153144 15.30859375 10.35546875 C15.53245492 15.27363071 15.60749285 19.07902884 12.5625 23.125 C9.32056735 26.38248148 6.24151768 26.85717012 1.7578125 27.02734375 C1.17773438 27.01832031 0.59765625 27.00929688 0 27 C0.639375 26.071875 1.27875 25.14375 1.9375 24.1875 C5.17994844 19.17644333 5.73619779 14.84114823 5 9 C3.91601809 6.38366184 2.59739304 4.37188664 1 2 C0.67 1.34 0.34 0.68 0 0 Z " fill="#1EA7E9" transform="translate(87,357)"/>
<path d="M0 0 C2.4375 1.5625 2.4375 1.5625 4 4 C4.56288002 7.94016013 4.60396028 10.05782196 2.4375 13.4375 C-0.94217804 15.60396028 -3.05983987 15.56288002 -7 15 C-9.4375 13.4375 -9.4375 13.4375 -11 11 C-11.56288002 7.05983987 -11.60396028 4.94217804 -9.4375 1.5625 C-6.05782196 -0.60396028 -3.94016013 -0.56288002 0 0 Z " fill="#0E0E0E" transform="translate(144,423)"/>
<path d="M0 0 C1.875 1 1.875 1 3 3 C3.78800596 5.70912996 4.1760464 8.17757863 4 11 C2.5 13.5 2.5 13.5 0 15 C-3.94016013 15.56288002 -6.05782196 15.60396028 -9.4375 13.4375 C-11.60396028 10.05782196 -11.56288002 7.94016013 -11 4 C-8.10582692 -0.51491 -5.12365602 -0.65210168 0 0 Z " fill="#0D0D0D" transform="translate(449,42)"/>
<path d="M0 0 C3.5 0.5625 3.5 0.5625 5.9375 2.125 C8.10396028 5.50467804 8.06288002 7.62233987 7.5 11.5625 C5.875 14 5.875 14 3.5 15.5625 C-0.14902278 16.17067046 -1.76828585 16.07667751 -4.8125 13.9375 C-6.91176127 10.98298414 -7.5 9.19325827 -7.5 5.5625 C-5.45638108 1.64556373 -4.39720316 0.70669337 0 0 Z " fill="#0A0A0A" transform="translate(109.5,422.4375)"/>
<path d="M0 0 C3.5 0.5625 3.5 0.5625 5.9375 2.125 C8.10396028 5.50467804 8.06288002 7.62233987 7.5 11.5625 C5.875 14 5.875 14 3.5 15.5625 C-0.14902278 16.17067046 -1.76828585 16.07667751 -4.8125 13.9375 C-6.91176127 10.98298414 -7.5 9.19325827 -7.5 5.5625 C-5.45638108 1.64556373 -4.39720316 0.70669337 0 0 Z " fill="#0A0A0A" transform="translate(414.5,41.4375)"/>
<path d="M0 0 C2.9375 2.125 2.9375 2.125 5 5 C4.92093582 8.95320924 4.20236257 10.69645615 2 14 C-4.88888889 15.66666667 -4.88888889 15.66666667 -8.5 13.5 C-10.55619196 10.0730134 -10.56158278 7.93107944 -10 4 C-7.27238925 -0.09141613 -4.79563536 -0.88083098 0 0 Z " fill="#080808" transform="translate(433,26)"/>
<path d="M0 0 C2 1 2 1 3 3 C3.39274738 6.09288558 3.63577985 8.04689172 3 11 C0.5816209 13.76386182 -0.96657334 14.79835577 -4.5625 15.5 C-7.96311101 14.80243877 -9.05445623 13.88228706 -11 11 C-11.63594926 7.48814687 -11.63017266 4.26034531 -10 1 C-6.73794446 -0.63102777 -3.56444611 -0.51981506 0 0 Z " fill="#080808" transform="translate(129,407)"/>
<path d="M0 0 C2.375 1.5625 2.375 1.5625 4 4 C4.56783945 7.97487617 4.62340519 10.06489221 2.375 13.4375 C-0.71685231 15.47161336 -2.36367425 15.60605429 -6 15 C-8.375 13.4375 -8.375 13.4375 -10 11 C-10.56783945 7.02512383 -10.62340519 4.93510779 -8.375 1.5625 C-5.28314769 -0.47161336 -3.63632575 -0.60605429 0 0 Z " fill="#070707" transform="translate(128,439)"/>
<path d="M0 0 C2.375 1.5625 2.375 1.5625 4 4 C4.56783945 7.97487617 4.62340519 10.06489221 2.375 13.4375 C-0.71685231 15.47161336 -2.36367425 15.60605429 -6 15 C-8.375 13.4375 -8.375 13.4375 -10 11 C-10.56783945 7.02512383 -10.62340519 4.93510779 -8.375 1.5625 C-5.28314769 -0.47161336 -3.63632575 -0.60605429 0 0 Z " fill="#070707" transform="translate(433,58)"/>
</svg>
